<?xml version="1.0" encoding="ISO8859-1"?>
<svg xmlns="http://www.w3.org/2000/svg" xmlns:xlink="http://www.w3.org/1999/xlink" width="718px" height="399px" viewBox="0 0 718 399" version="1.1">
  <metadata xmlns:gridsvg="http://www.stat.auckland.ac.nz/~paul/R/gridSVG/">
    <gridsvg:generator name="gridSVG" version="1.2-0" time="2013-05-06 17:36:50"/>
    <gridsvg:argument name="name" value="example4.svg"/>
    <gridsvg:argument name="exportCoords" value="none"/>
    <gridsvg:argument name="exportMappings" value="none"/>
    <gridsvg:argument name="exportJS" value="none"/>
    <gridsvg:argument name="res" value="72"/>
    <gridsvg:argument name="prefix" value=""/>
    <gridsvg:argument name="addClasses" value="FALSE"/>
    <gridsvg:argument name="indent" value="TRUE"/>
    <gridsvg:argument name="htmlWrapper" value="FALSE"/>
    <gridsvg:argument name="usePaths" value="vpPaths"/>
    <gridsvg:argument name="uniqueNames" value="TRUE"/>
    <gridsvg:separator name="id.sep" value="."/>
    <gridsvg:separator name="gPath.sep" value="::"/>
    <gridsvg:separator name="vpPath.sep" value="::"/>
  </metadata>
  <g transform="translate(0, 399) scale(1, -1)">
    <g id="gridSVG" fill="none" stroke="rgb(0,0,0)" stroke-dasharray="none" stroke-width="1" font-size="16" font-family="Helvetica, Arial, FreeSans, Liberation Sans, Nimbus Sans L, sans-serif" opacity="1" stroke-linecap="round" stroke-linejoin="round" stroke-miterlimit="10" stroke-opacity="1" fill-opacity="0" font-weight="normal" font-style="normal">
      <g id="plot_01.background.1">
        <rect id="plot_01.background.1.1" x="0" y="0" width="718" height="399" fill="none" stroke="none" stroke-opacity="0" fill-opacity="0"/>
      </g>
      <g id="plot_01.toplevel.vp.1" font-size="12">
        <g id="plot_01.toplevel.vp::plot_01.xlab.vp.1">
          <g id="plot_01.xlab.1">
            <g transform="translate(371.5, 17)" stroke-width="0.1" id="plot_01.xlab.1.1">
              <g transform="scale(1, -1)">
                <text x="0" y="0" text-anchor="middle" opacity="1" stroke="rgb(0,0,0)" stroke-opacity="1" fill="rgb(0,0,0)" fill-opacity="1" font-size="12" font-weight="normal" font-style="normal">
                  <tspan dy="5" x="0">gcsescore</tspan>
                </text>
              </g>
            </g>
          </g>
        </g>
        <g id="plot_01.toplevel.vp::plot_01.ylab.vp.1">
          <g id="plot_01.ylab.1">
            <g transform="translate(11, 195.62)" stroke-width="0.1" id="plot_01.ylab.1.1">
              <g transform="scale(1, -1)">
                <text x="0" y="0" transform="rotate(-90)" text-anchor="middle" opacity="1" stroke="rgb(0,0,0)" stroke-opacity="1" fill="rgb(0,0,0)" fill-opacity="1" font-size="12" font-weight="normal" font-style="normal">
                  <tspan dy="5" x="0">Density</tspan>
                </text>
              </g>
            </g>
          </g>
        </g>
        <g id="plot_01.toplevel.vp::plot_01.figure.vp.1"/>
        <defs>
          <clipPath id="plot_01.toplevel.vp::plot_01.panel.1.1.vp.1.clipPath">
            <rect x="54.01" y="53.01" width="634.98" height="285.22" fill="none" stroke="none"/>
          </clipPath>
        </defs>
        <g id="plot_01.toplevel.vp::plot_01.panel.1.1.vp.1" clip-path="url(#plot_01.toplevel.vp::plot_01.panel.1.1.vp.1.clipPath)"/>
        <g id="plot_01.toplevel.vp::plot_01.strip.1.1.off.vp.1">
          <g id="plot_01.ticks.top.panel.1.1.1">
            <polyline stroke="rgb(0,0,0)" opacity="1" stroke-dasharray="none" stroke-width="1" stroke-opacity="1" fill="none" id="plot_01.ticks.top.panel.1.1.1.1" points="111.36,338.23 111.36,343.9"/>
            <polyline stroke="rgb(0,0,0)" opacity="1" stroke-dasharray="none" stroke-width="1" stroke-opacity="1" fill="none" id="plot_01.ticks.top.panel.1.1.1.2" points="241.43,338.23 241.43,343.9"/>
            <polyline stroke="rgb(0,0,0)" opacity="1" stroke-dasharray="none" stroke-width="1" stroke-opacity="1" fill="none" id="plot_01.ticks.top.panel.1.1.1.3" points="371.5,338.23 371.5,343.9"/>
            <polyline stroke="rgb(0,0,0)" opacity="1" stroke-dasharray="none" stroke-width="1" stroke-opacity="1" fill="none" id="plot_01.ticks.top.panel.1.1.1.4" points="501.57,338.23 501.57,343.9"/>
            <polyline stroke="rgb(0,0,0)" opacity="1" stroke-dasharray="none" stroke-width="1" stroke-opacity="1" fill="none" id="plot_01.ticks.top.panel.1.1.1.5" points="631.64,338.23 631.64,343.9"/>
          </g>
        </g>
        <g id="plot_01.toplevel.vp::plot_01.strip.left.1.1.off.vp.1">
          <g id="plot_01.ticks.left.panel.1.1.1">
            <polyline stroke="rgb(0,0,0)" opacity="1" stroke-dasharray="none" stroke-width="1" stroke-opacity="1" fill="none" id="plot_01.ticks.left.panel.1.1.1.1" points="54.01,70.52 48.34,70.52"/>
            <polyline stroke="rgb(0,0,0)" opacity="1" stroke-dasharray="none" stroke-width="1" stroke-opacity="1" fill="none" id="plot_01.ticks.left.panel.1.1.1.2" points="54.01,136.12 48.34,136.12"/>
            <polyline stroke="rgb(0,0,0)" opacity="1" stroke-dasharray="none" stroke-width="1" stroke-opacity="1" fill="none" id="plot_01.ticks.left.panel.1.1.1.3" points="54.01,201.72 48.34,201.72"/>
            <polyline stroke="rgb(0,0,0)" opacity="1" stroke-dasharray="none" stroke-width="1" stroke-opacity="1" fill="none" id="plot_01.ticks.left.panel.1.1.1.4" points="54.01,267.32 48.34,267.32"/>
            <polyline stroke="rgb(0,0,0)" opacity="1" stroke-dasharray="none" stroke-width="1" stroke-opacity="1" fill="none" id="plot_01.ticks.left.panel.1.1.1.5" points="54.01,332.92 48.34,332.92"/>
          </g>
          <g id="plot_01.ticklabels.left.panel.1.1.1">
            <g transform="translate(42.67, 70.52)" stroke-width="0.1" id="plot_01.ticklabels.left.panel.1.1.1.1">
              <g transform="scale(1, -1)">
                <text x="0" y="0" text-anchor="end" stroke="rgb(0,0,0)" opacity="1" stroke-opacity="1" fill="rgb(0,0,0)" fill-opacity="1" font-size="9.6" font-weight="normal" font-style="normal">
                  <tspan dy="4" x="0">0.0</tspan>
                </text>
              </g>
            </g>
            <g transform="translate(42.67, 136.12)" stroke-width="0.1" id="plot_01.ticklabels.left.panel.1.1.1.2">
              <g transform="scale(1, -1)">
                <text x="0" y="0" text-anchor="end" stroke="rgb(0,0,0)" opacity="1" stroke-opacity="1" fill="rgb(0,0,0)" fill-opacity="1" font-size="9.6" font-weight="normal" font-style="normal">
                  <tspan dy="4" x="0">0.2</tspan>
                </text>
              </g>
            </g>
            <g transform="translate(42.67, 201.72)" stroke-width="0.1" id="plot_01.ticklabels.left.panel.1.1.1.3">
              <g transform="scale(1, -1)">
                <text x="0" y="0" text-anchor="end" stroke="rgb(0,0,0)" opacity="1" stroke-opacity="1" fill="rgb(0,0,0)" fill-opacity="1" font-size="9.6" font-weight="normal" font-style="normal">
                  <tspan dy="4" x="0">0.4</tspan>
                </text>
              </g>
            </g>
            <g transform="translate(42.67, 267.32)" stroke-width="0.1" id="plot_01.ticklabels.left.panel.1.1.1.4">
              <g transform="scale(1, -1)">
                <text x="0" y="0" text-anchor="end" stroke="rgb(0,0,0)" opacity="1" stroke-opacity="1" fill="rgb(0,0,0)" fill-opacity="1" font-size="9.6" font-weight="normal" font-style="normal">
                  <tspan dy="4" x="0">0.6</tspan>
                </text>
              </g>
            </g>
          </g>
        </g>
        <g id="plot_01.toplevel.vp::plot_01.panel.1.1.off.vp.1">
          <g id="plot_01.ticks.bottom.panel.1.1.1">
            <polyline stroke="rgb(0,0,0)" opacity="1" stroke-dasharray="none" stroke-width="1" stroke-opacity="1" fill="none" id="plot_01.ticks.bottom.panel.1.1.1.1" points="111.36,53.01 111.36,47.34"/>
            <polyline stroke="rgb(0,0,0)" opacity="1" stroke-dasharray="none" stroke-width="1" stroke-opacity="1" fill="none" id="plot_01.ticks.bottom.panel.1.1.1.2" points="241.43,53.01 241.43,47.34"/>
            <polyline stroke="rgb(0,0,0)" opacity="1" stroke-dasharray="none" stroke-width="1" stroke-opacity="1" fill="none" id="plot_01.ticks.bottom.panel.1.1.1.3" points="371.5,53.01 371.5,47.34"/>
            <polyline stroke="rgb(0,0,0)" opacity="1" stroke-dasharray="none" stroke-width="1" stroke-opacity="1" fill="none" id="plot_01.ticks.bottom.panel.1.1.1.4" points="501.57,53.01 501.57,47.34"/>
            <polyline stroke="rgb(0,0,0)" opacity="1" stroke-dasharray="none" stroke-width="1" stroke-opacity="1" fill="none" id="plot_01.ticks.bottom.panel.1.1.1.5" points="631.64,53.01 631.64,47.34"/>
          </g>
          <g id="plot_01.ticklabels.bottom.panel.1.1.1">
            <g transform="translate(111.36, 41.67)" stroke-width="0.1" id="plot_01.ticklabels.bottom.panel.1.1.1.1">
              <g transform="scale(1, -1)">
                <text x="0" y="0" text-anchor="middle" stroke="rgb(0,0,0)" opacity="1" stroke-opacity="1" fill="rgb(0,0,0)" fill-opacity="1" font-size="9.6" font-weight="normal" font-style="normal">
                  <tspan dy="8" x="0">0</tspan>
                </text>
              </g>
            </g>
            <g transform="translate(241.43, 41.67)" stroke-width="0.1" id="plot_01.ticklabels.bottom.panel.1.1.1.2">
              <g transform="scale(1, -1)">
                <text x="0" y="0" text-anchor="middle" stroke="rgb(0,0,0)" opacity="1" stroke-opacity="1" fill="rgb(0,0,0)" fill-opacity="1" font-size="9.6" font-weight="normal" font-style="normal">
                  <tspan dy="8" x="0">2</tspan>
                </text>
              </g>
            </g>
            <g transform="translate(371.5, 41.67)" stroke-width="0.1" id="plot_01.ticklabels.bottom.panel.1.1.1.3">
              <g transform="scale(1, -1)">
                <text x="0" y="0" text-anchor="middle" stroke="rgb(0,0,0)" opacity="1" stroke-opacity="1" fill="rgb(0,0,0)" fill-opacity="1" font-size="9.6" font-weight="normal" font-style="normal">
                  <tspan dy="8" x="0">4</tspan>
                </text>
              </g>
            </g>
            <g transform="translate(501.57, 41.67)" stroke-width="0.1" id="plot_01.ticklabels.bottom.panel.1.1.1.4">
              <g transform="scale(1, -1)">
                <text x="0" y="0" text-anchor="middle" stroke="rgb(0,0,0)" opacity="1" stroke-opacity="1" fill="rgb(0,0,0)" fill-opacity="1" font-size="9.6" font-weight="normal" font-style="normal">
                  <tspan dy="8" x="0">6</tspan>
                </text>
              </g>
            </g>
            <g transform="translate(631.64, 41.67)" stroke-width="0.1" id="plot_01.ticklabels.bottom.panel.1.1.1.5">
              <g transform="scale(1, -1)">
                <text x="0" y="0" text-anchor="middle" stroke="rgb(0,0,0)" opacity="1" stroke-opacity="1" fill="rgb(0,0,0)" fill-opacity="1" font-size="9.6" font-weight="normal" font-style="normal">
                  <tspan dy="8" x="0">8</tspan>
                </text>
              </g>
            </g>
          </g>
          <g id="plot_01.ticks.right.panel.1.1.1">
            <polyline stroke="rgb(0,0,0)" opacity="1" stroke-dasharray="none" stroke-width="1" stroke-opacity="1" fill="none" id="plot_01.ticks.right.panel.1.1.1.1" points="688.99,70.52 694.66,70.52"/>
            <polyline stroke="rgb(0,0,0)" opacity="1" stroke-dasharray="none" stroke-width="1" stroke-opacity="1" fill="none" id="plot_01.ticks.right.panel.1.1.1.2" points="688.99,136.12 694.66,136.12"/>
            <polyline stroke="rgb(0,0,0)" opacity="1" stroke-dasharray="none" stroke-width="1" stroke-opacity="1" fill="none" id="plot_01.ticks.right.panel.1.1.1.3" points="688.99,201.72 694.66,201.72"/>
            <polyline stroke="rgb(0,0,0)" opacity="1" stroke-dasharray="none" stroke-width="1" stroke-opacity="1" fill="none" id="plot_01.ticks.right.panel.1.1.1.4" points="688.99,267.32 694.66,267.32"/>
            <polyline stroke="rgb(0,0,0)" opacity="1" stroke-dasharray="none" stroke-width="1" stroke-opacity="1" fill="none" id="plot_01.ticks.right.panel.1.1.1.5" points="688.99,332.92 694.66,332.92"/>
          </g>
        </g>
        <defs>
          <clipPath id="plot_01.toplevel.vp::plot_01.panel.1.1.vp.2.clipPath">
            <rect x="54.01" y="53.01" width="634.98" height="285.22" fill="none" stroke="none"/>
          </clipPath>
        </defs>
        <g id="plot_01.toplevel.vp::plot_01.panel.1.1.vp.2" clip-path="url(#plot_01.toplevel.vp::plot_01.panel.1.1.vp.2.clipPath)">
          <g id="plot_01.density abline.h.panel.1.1.1">
            <polyline stroke="rgb(230,230,230)" stroke-dasharray="none" stroke-width="1" opacity="1" stroke-opacity="1" fill="none" id="plot_01.density abline.h.panel.1.1.1.1" points="54.01,70.52 688.99,70.52"/>
          </g>
          <g id="plot_01.density.lines.group.1.panel.1.1.1">
            <polyline stroke-dasharray="none" stroke="rgb(0,128,255)" stroke-width="1" opacity="1" stroke-opacity="1" fill="none" id="plot_01.density.lines.group.1.panel.1.1.1.1" points="151.04,70.52 160.97,70.57 170.89,70.74 180.82,70.76 190.75,70.61 200.68,70.7 210.6,70.79 220.53,70.63 230.46,70.58 240.39,70.73 250.31,70.81 260.24,70.98 270.17,71.81 280.1,72.86 290.02,73.7 299.95,74.58 309.88,77.28 319.81,80.72 329.73,82.67 339.66,86.53 349.59,92.75 359.52,99.93 369.44,107.48 379.37,117.37 389.3,129.51 399.23,142.72 409.15,156.31 419.08,176.28 429.01,201.23 438.94,224.38 448.86,235.99 458.79,242.58 468.72,242.55 478.65,237.47 488.57,222.54 498.5,199.25 508.43,184.75 518.36,166.82 528.28,140.96 538.21,115.66 548.14,98.69 558.07,87.51 567.99,80.66 577.92,76.06 587.85,72.97 597.78,72.06 607.71,71.74 617.63,71.02 627.56,70.6 637.49,70.53"/>
          </g>
          <g id="plot_01.density.lines.group.2.panel.1.1.1">
            <polyline stroke-dasharray="none" stroke="rgb(255,0,255)" stroke-width="1" opacity="1" stroke-opacity="1" fill="none" id="plot_01.density.lines.group.2.panel.1.1.1.1" points="258.19,70.53 265.74,70.61 273.28,70.93 280.82,71.3 288.37,71.54 295.91,72.31 303.46,73.46 311,73.57 318.55,72.94 326.09,72.77 333.64,73.14 341.18,74.53 348.73,76.91 356.27,80.77 363.82,85.27 371.36,87.13 378.91,88.58 386.45,91.99 394,98.24 401.54,106.47 409.09,115.08 416.63,125.52 424.18,139.83 431.72,157.77 439.27,179.16 446.81,199.02 454.36,209.28 461.9,220.32 469.45,240.69 476.99,259.85 484.54,269.92 492.08,270.71 499.63,264.1 507.17,251.78 514.72,232.21 522.26,205.44 529.81,182.86 537.35,166.35 544.9,147.26 552.44,126.27 559.99,109.29 567.53,97.54 575.07,88.21 582.62,81.32 590.16,76.79 597.71,73.31 605.25,71.44 612.8,70.79 620.34,70.57 627.89,70.53"/>
          </g>
          <g id="plot_01.density.lines.group.3.panel.1.1.1">
            <polyline stroke-dasharray="none" stroke="rgb(0,100,0)" stroke-width="1" opacity="1" stroke-opacity="1" fill="none" id="plot_01.density.lines.group.3.panel.1.1.1.1" points="154.84,70.52 164.87,70.59 174.89,70.77 184.91,70.65 194.93,70.53 204.95,70.52 214.97,70.52 225,70.52 235.02,70.52 245.04,70.52 255.06,70.52 265.08,70.52 275.1,70.52 285.13,70.59 295.15,70.84 305.17,70.94 315.19,70.95 325.21,71.65 335.23,72.76 345.26,73.25 355.28,73.84 365.3,76.39 375.32,81.55 385.34,84.12 395.37,87.2 405.39,92.9 415.41,101.32 425.43,113.24 435.45,128.22 445.47,146.29 455.5,166.27 465.52,192.47 475.54,223.55 485.56,248.68 495.58,267.86 505.6,274.41 515.63,264.12 525.65,249.97 535.67,224.63 545.69,196.23 555.71,168.04 565.73,137.95 575.76,108.9 585.78,90.51 595.8,80.94 605.82,74.73 615.84,71.86 625.86,71.1 635.89,70.65 645.91,70.53"/>
          </g>
          <g id="plot_01.density.lines.group.4.panel.1.1.1">
            <polyline stroke-dasharray="none" stroke="rgb(255,0,0)" stroke-width="1" opacity="1" stroke-opacity="1" fill="none" id="plot_01.density.lines.group.4.panel.1.1.1.1" points="93,70.52 104.37,70.65 115.73,70.71 127.1,70.53 138.47,70.52 149.84,70.52 161.2,70.52 172.57,70.52 183.94,70.52 195.3,70.52 206.67,70.52 218.04,70.52 229.41,70.56 240.77,70.76 252.14,70.57 263.51,70.52 274.88,70.55 286.24,70.75 297.61,70.59 308.98,70.55 320.35,71.05 331.71,71.43 343.08,71.97 354.45,71.9 365.82,73.19 377.18,74.72 388.55,77.59 399.92,80.27 411.29,82.17 422.65,90.12 434.02,98.13 445.39,110.08 456.76,127.96 468.12,154.57 479.49,186.32 490.86,217.8 502.23,244.78 513.59,275.66 524.96,284.4 536.33,279.68 547.7,251.22 559.06,213.49 570.43,171.82 581.8,135.1 593.16,104.77 604.53,84.15 615.9,75.59 627.27,71.9 638.63,70.7 650,70.52"/>
          </g>
          <g id="plot_01.density.lines.group.5.panel.1.1.1">
            <polyline stroke-dasharray="none" stroke="rgb(255,165,0)" stroke-width="1" opacity="1" stroke-opacity="1" fill="none" id="plot_01.density.lines.group.5.panel.1.1.1.1" points="252.37,70.52 260.46,70.59 268.54,70.75 276.63,70.62 284.71,70.53 292.8,70.52 300.88,70.53 308.97,70.66 317.05,70.73 325.14,70.56 333.22,70.54 341.31,70.73 349.39,70.99 357.48,71.07 365.56,71.43 373.65,71.3 381.73,71.48 389.82,72.51 397.9,74.19 405.99,75.35 414.07,76.3 422.16,78.27 430.24,80.25 438.33,81.29 446.41,86.81 454.5,95.05 462.58,104.3 470.67,112.1 478.75,126.26 486.84,141.26 494.92,156.05 503.01,179.9 511.09,203.4 519.18,228.24 527.26,256.11 535.35,272.94 543.43,286.25 551.52,301.7 559.6,303.87 567.69,283.87 575.77,250.92 583.86,217.98 591.94,177.29 600.03,142.09 608.11,112.01 616.2,92.29 624.28,80.2 632.37,73.15 640.45,70.86 648.54,70.53"/>
          </g>
          <g id="plot_01.density.lines.group.6.panel.1.1.1">
            <polyline stroke-dasharray="none" stroke="rgb(0,255,0)" stroke-width="1" opacity="1" stroke-opacity="1" fill="none" id="plot_01.density.lines.group.6.panel.1.1.1.1" points="290.22,70.52 297.52,70.58 304.82,70.75 312.12,70.66 319.42,70.54 326.72,70.53 334.02,70.59 341.32,70.75 348.62,70.65 355.92,70.53 363.22,70.52 370.52,70.59 377.81,70.85 385.11,70.94 392.41,70.93 399.71,71.33 407.01,71.96 414.31,71.52 421.61,71.3 428.91,71.79 436.21,72.47 443.51,72.92 450.81,74.04 458.11,75.09 465.4,76.46 472.7,79.76 480,85.24 487.3,90.12 494.6,96.65 501.9,103.39 509.2,109.66 516.5,124.58 523.8,138.86 531.1,161.03 538.4,188.02 545.7,217.33 552.99,243.45 560.29,266.22 567.59,297 574.89,310.69 582.19,319.83 589.49,320.72 596.79,313.34 604.09,296.42 611.39,259.98 618.69,214.31 625.99,164.3 633.29,112.65 640.58,78.24 647.88,70.84"/>
          </g>
        </g>
        <g id="plot_01.toplevel.vp::plot_01.panel.1.1.off.vp.2">
          <g id="plot_01.border.panel.1.1.1">
            <rect id="plot_01.border.panel.1.1.1.1" x="54.01" y="53.01" width="634.98" height="285.22" stroke="rgb(0,0,0)" stroke-dasharray="none" stroke-width="1" opacity="1" fill="none" stroke-opacity="1" fill-opacity="0"/>
          </g>
        </g>
        <g id="plot_01.toplevel.vp::plot_01.legend.top.vp.1">
          <g id="plot_01.toplevel.vp::plot_01.legend.top.vp::GRID.VP.210.1">
            <g id="plot_01.key.frame.1">
              <g id="plot_01.toplevel.vp::plot_01.legend.top.vp::GRID.VP.210::GRID.VP.211.1">
                <g id="GRID.cellGrob.5748.1">
                  <g id="plot_01.key.background.1">
                    <rect id="plot_01.key.background.1.1" x="242" y="361.24" width="259" height="25.76" fill="none" opacity="1" stroke="none" stroke-opacity="0" fill-opacity="0"/>
                  </g>
                </g>
              </g>
              <g id="plot_01.toplevel.vp::plot_01.legend.top.vp::GRID.VP.210::GRID.VP.212.1">
                <g id="GRID.cellGrob.5749.1">
                  <g id="plot_01.key.text.1.1.1">
                    <g transform="translate(249, 380.56)" stroke-width="0.1" id="plot_01.key.text.1.1.1.1">
                      <g transform="scale(1, -1)">
                        <text x="0" y="0" text-anchor="start" stroke="rgb(0,0,0)" opacity="1" stroke-opacity="1" fill="rgb(0,0,0)" fill-opacity="1" font-size="12" font-weight="normal" font-style="normal">
                          <tspan dy="5" x="0">0</tspan>
                        </text>
                      </g>
                    </g>
                  </g>
                </g>
              </g>
              <g id="plot_01.toplevel.vp::plot_01.legend.top.vp::GRID.VP.210::GRID.VP.213.1">
                <g id="GRID.cellGrob.5750.1">
                  <g id="plot_01.key.text.1.2.1">
                    <g transform="translate(249, 367.68)" stroke-width="0.1" id="plot_01.key.text.1.2.1.1">
                      <g transform="scale(1, -1)">
                        <text x="0" y="0" text-anchor="start" stroke="rgb(0,0,0)" opacity="1" stroke-opacity="1" fill="rgb(0,0,0)" fill-opacity="1" font-size="12" font-weight="normal" font-style="normal">
                          <tspan dy="5" x="0">2</tspan>
                        </text>
                      </g>
                    </g>
                  </g>
                </g>
              </g>
              <g id="plot_01.toplevel.vp::plot_01.legend.top.vp::GRID.VP.210::GRID.VP.214.1">
                <g id="GRID.cellGrob.5751.1">
                  <g id="plot_01.key.text.3.1.1">
                    <g transform="translate(340, 380.56)" stroke-width="0.1" id="plot_01.key.text.3.1.1.1">
                      <g transform="scale(1, -1)">
                        <text x="0" y="0" text-anchor="start" stroke="rgb(0,0,0)" opacity="1" stroke-opacity="1" fill="rgb(0,0,0)" fill-opacity="1" font-size="12" font-weight="normal" font-style="normal">
                          <tspan dy="5" x="0">4</tspan>
                        </text>
                      </g>
                    </g>
                  </g>
                </g>
              </g>
              <g id="plot_01.toplevel.vp::plot_01.legend.top.vp::GRID.VP.210::GRID.VP.215.1">
                <g id="GRID.cellGrob.5752.1">
                  <g id="plot_01.key.text.3.2.1">
                    <g transform="translate(340, 367.68)" stroke-width="0.1" id="plot_01.key.text.3.2.1.1">
                      <g transform="scale(1, -1)">
                        <text x="0" y="0" text-anchor="start" stroke="rgb(0,0,0)" opacity="1" stroke-opacity="1" fill="rgb(0,0,0)" fill-opacity="1" font-size="12" font-weight="normal" font-style="normal">
                          <tspan dy="5" x="0">6</tspan>
                        </text>
                      </g>
                    </g>
                  </g>
                </g>
              </g>
              <g id="plot_01.toplevel.vp::plot_01.legend.top.vp::GRID.VP.210::GRID.VP.216.1">
                <g id="GRID.cellGrob.5753.1">
                  <g id="plot_01.key.text.5.1.1">
                    <g transform="translate(431, 380.56)" stroke-width="0.1" id="plot_01.key.text.5.1.1.1">
                      <g transform="scale(1, -1)">
                        <text x="0" y="0" text-anchor="start" stroke="rgb(0,0,0)" opacity="1" stroke-opacity="1" fill="rgb(0,0,0)" fill-opacity="1" font-size="12" font-weight="normal" font-style="normal">
                          <tspan dy="5" x="0">8</tspan>
                        </text>
                      </g>
                    </g>
                  </g>
                </g>
              </g>
              <g id="plot_01.toplevel.vp::plot_01.legend.top.vp::GRID.VP.210::GRID.VP.217.1">
                <g id="GRID.cellGrob.5754.1">
                  <g id="plot_01.key.text.5.2.1">
                    <g transform="translate(431, 367.68)" stroke-width="0.1" id="plot_01.key.text.5.2.1.1">
                      <g transform="scale(1, -1)">
                        <text x="0" y="0" text-anchor="start" stroke="rgb(0,0,0)" opacity="1" stroke-opacity="1" fill="rgb(0,0,0)" fill-opacity="1" font-size="12" font-weight="normal" font-style="normal">
                          <tspan dy="5" x="0">10</tspan>
                        </text>
                      </g>
                    </g>
                  </g>
                </g>
              </g>
              <g id="plot_01.toplevel.vp::plot_01.legend.top.vp::GRID.VP.210::GRID.VP.218.1">
                <g id="GRID.cellGrob.5755.1">
                  <g id="plot_01.key.lines.2.1.1">
                    <polyline stroke="rgb(0,128,255)" opacity="1" stroke-dasharray="none" stroke-width="1" stroke-opacity="1" fill="none" id="plot_01.key.lines.2.1.1.1" points="270,380.56 305,380.56"/>
                  </g>
                </g>
              </g>
              <g id="plot_01.toplevel.vp::plot_01.legend.top.vp::GRID.VP.210::GRID.VP.219.1">
                <g id="GRID.cellGrob.5756.1">
                  <g id="plot_01.key.lines.2.2.1">
                    <polyline stroke="rgb(255,0,255)" opacity="1" stroke-dasharray="none" stroke-width="1" stroke-opacity="1" fill="none" id="plot_01.key.lines.2.2.1.1" points="270,367.68 305,367.68"/>
                  </g>
                </g>
              </g>
              <g id="plot_01.toplevel.vp::plot_01.legend.top.vp::GRID.VP.210::GRID.VP.220.1">
                <g id="GRID.cellGrob.5757.1">
                  <g id="plot_01.key.lines.4.1.1">
                    <polyline stroke="rgb(0,100,0)" opacity="1" stroke-dasharray="none" stroke-width="1" stroke-opacity="1" fill="none" id="plot_01.key.lines.4.1.1.1" points="361,380.56 396,380.56"/>
                  </g>
                </g>
              </g>
              <g id="plot_01.toplevel.vp::plot_01.legend.top.vp::GRID.VP.210::GRID.VP.221.1">
                <g id="GRID.cellGrob.5758.1">
                  <g id="plot_01.key.lines.4.2.1">
                    <polyline stroke="rgb(255,0,0)" opacity="1" stroke-dasharray="none" stroke-width="1" stroke-opacity="1" fill="none" id="plot_01.key.lines.4.2.1.1" points="361,367.68 396,367.68"/>
                  </g>
                </g>
              </g>
              <g id="plot_01.toplevel.vp::plot_01.legend.top.vp::GRID.VP.210::GRID.VP.222.1">
                <g id="GRID.cellGrob.5759.1">
                  <g id="plot_01.key.lines.6.1.1">
                    <polyline stroke="rgb(255,165,0)" opacity="1" stroke-dasharray="none" stroke-width="1" stroke-opacity="1" fill="none" id="plot_01.key.lines.6.1.1.1" points="459,380.56 494,380.56"/>
                  </g>
                </g>
              </g>
              <g id="plot_01.toplevel.vp::plot_01.legend.top.vp::GRID.VP.210::GRID.VP.223.1">
                <g id="GRID.cellGrob.5760.1">
                  <g id="plot_01.key.lines.6.2.1">
                    <polyline stroke="rgb(0,255,0)" opacity="1" stroke-dasharray="none" stroke-width="1" stroke-opacity="1" fill="none" id="plot_01.key.lines.6.2.1.1" points="459,367.68 494,367.68"/>
                  </g>
                </g>
              </g>
            </g>
          </g>
        </g>
        <g id="plot_01.toplevel.vp::plot_01..1"/>
      </g>
    </g>
  </g>
</svg>