<?xml version="1.0" encoding="ISO8859-1"?>
<svg xmlns="http://www.w3.org/2000/svg" xmlns:xlink="http://www.w3.org/1999/xlink" width="683px" height="391px" viewBox="0 0 683 391" version="1.1">
  <metadata xmlns:gridsvg="http://www.stat.auckland.ac.nz/~paul/R/gridSVG/">
    <gridsvg:generator name="gridSVG" version="1.2-0" time="2013-05-29 11:01:46"/>
    <gridsvg:argument name="name" value="testvoronoi3.svg"/>
    <gridsvg:argument name="exportCoords" value="none"/>
    <gridsvg:argument name="exportMappings" value="none"/>
    <gridsvg:argument name="exportJS" value="none"/>
    <gridsvg:argument name="res" value="72"/>
    <gridsvg:argument name="prefix" value=""/>
    <gridsvg:argument name="addClasses" value="FALSE"/>
    <gridsvg:argument name="indent" value="TRUE"/>
    <gridsvg:argument name="htmlWrapper" value="FALSE"/>
    <gridsvg:argument name="usePaths" value="vpPaths"/>
    <gridsvg:argument name="uniqueNames" value="TRUE"/>
    <gridsvg:separator name="id.sep" value="."/>
    <gridsvg:separator name="gPath.sep" value="::"/>
    <gridsvg:separator name="vpPath.sep" value="::"/>
  </metadata>
  <g transform="translate(0, 391) scale(1, -1)">
    <g id="gridSVG" fill="none" stroke="rgb(0,0,0)" stroke-dasharray="none" stroke-width="1" font-size="16" font-family="Helvetica, Arial, FreeSans, Liberation Sans, Nimbus Sans L, sans-serif" opacity="1" stroke-linecap="round" stroke-linejoin="round" stroke-miterlimit="10" stroke-opacity="1" fill-opacity="0" font-weight="normal" font-style="normal">
      <g id="plot_01.background.1">
        <rect id="plot_01.background.1.1" x="0" y="0" width="683" height="391" fill="none" stroke="none" stroke-opacity="0" fill-opacity="0"/>
      </g>
      <g id="plot_01.toplevel.vp.1" font-size="12">
        <g id="plot_01.toplevel.vp::plot_01.xlab.vp.1">
          <g id="plot_01.xlab.1">
            <g id="plot_01.xlab.1.1" transform="translate(333.54, 17)" stroke-width="0.1">
              <g transform="scale(1, -1)">
                <text x="0" y="0" text-anchor="middle" opacity="1" stroke="rgb(0,0,0)" stroke-opacity="1" fill="rgb(0,0,0)" fill-opacity="1" font-size="12" font-weight="normal" font-style="normal">
                  <tspan dy="5" x="0">x</tspan>
                </text>
              </g>
            </g>
          </g>
        </g>
        <g id="plot_01.toplevel.vp::plot_01.ylab.vp.1">
          <g id="plot_01.ylab.1">
            <g id="plot_01.ylab.1.1" transform="translate(11, 204.5)" stroke-width="0.1">
              <g transform="scale(1, -1)">
                <text x="0" y="0" transform="rotate(-90)" text-anchor="middle" opacity="1" stroke="rgb(0,0,0)" stroke-opacity="1" fill="rgb(0,0,0)" fill-opacity="1" font-size="12" font-weight="normal" font-style="normal">
                  <tspan dy="5" x="0">y</tspan>
                </text>
              </g>
            </g>
          </g>
        </g>
        <g id="plot_01.toplevel.vp::plot_01.figure.vp.1"/>
        <defs>
          <clipPath id="plot_01.toplevel.vp::plot_01.panel.1.1.vp.1.clipPath">
            <rect x="45.01" y="53.01" width="577.06" height="302.98" fill="none" stroke="none"/>
          </clipPath>
        </defs>
        <g id="plot_01.toplevel.vp::plot_01.panel.1.1.vp.1" clip-path="url(#plot_01.toplevel.vp::plot_01.panel.1.1.vp.1.clipPath)"/>
        <g id="plot_01.toplevel.vp::plot_01.strip.1.1.off.vp.1">
          <g id="plot_01.ticks.top.panel.1.1.1">
            <polyline id="plot_01.ticks.top.panel.1.1.1.1" points="55.83,355.99 55.83,361.66" stroke="rgb(0,0,0)" opacity="1" stroke-dasharray="none" stroke-width="1" stroke-opacity="1" fill="none"/>
            <polyline id="plot_01.ticks.top.panel.1.1.1.2" points="179.5,355.99 179.5,361.66" stroke="rgb(0,0,0)" opacity="1" stroke-dasharray="none" stroke-width="1" stroke-opacity="1" fill="none"/>
            <polyline id="plot_01.ticks.top.panel.1.1.1.3" points="303.17,355.99 303.17,361.66" stroke="rgb(0,0,0)" opacity="1" stroke-dasharray="none" stroke-width="1" stroke-opacity="1" fill="none"/>
            <polyline id="plot_01.ticks.top.panel.1.1.1.4" points="426.84,355.99 426.84,361.66" stroke="rgb(0,0,0)" opacity="1" stroke-dasharray="none" stroke-width="1" stroke-opacity="1" fill="none"/>
            <polyline id="plot_01.ticks.top.panel.1.1.1.5" points="550.51,355.99 550.51,361.66" stroke="rgb(0,0,0)" opacity="1" stroke-dasharray="none" stroke-width="1" stroke-opacity="1" fill="none"/>
          </g>
        </g>
        <g id="plot_01.toplevel.vp::plot_01.strip.left.1.1.off.vp.1">
          <g id="plot_01.ticks.left.panel.1.1.1">
            <polyline id="plot_01.ticks.left.panel.1.1.1.1" points="45.01,62.14 39.34,62.14" stroke="rgb(0,0,0)" opacity="1" stroke-dasharray="none" stroke-width="1" stroke-opacity="1" fill="none"/>
            <polyline id="plot_01.ticks.left.panel.1.1.1.2" points="45.01,123.09 39.34,123.09" stroke="rgb(0,0,0)" opacity="1" stroke-dasharray="none" stroke-width="1" stroke-opacity="1" fill="none"/>
            <polyline id="plot_01.ticks.left.panel.1.1.1.3" points="45.01,184.04 39.34,184.04" stroke="rgb(0,0,0)" opacity="1" stroke-dasharray="none" stroke-width="1" stroke-opacity="1" fill="none"/>
            <polyline id="plot_01.ticks.left.panel.1.1.1.4" points="45.01,244.99 39.34,244.99" stroke="rgb(0,0,0)" opacity="1" stroke-dasharray="none" stroke-width="1" stroke-opacity="1" fill="none"/>
            <polyline id="plot_01.ticks.left.panel.1.1.1.5" points="45.01,305.94 39.34,305.94" stroke="rgb(0,0,0)" opacity="1" stroke-dasharray="none" stroke-width="1" stroke-opacity="1" fill="none"/>
          </g>
          <g id="plot_01.ticklabels.left.panel.1.1.1">
            <g id="plot_01.ticklabels.left.panel.1.1.1.1" transform="translate(33.67, 62.14)" stroke-width="0.1">
              <g transform="scale(1, -1)">
                <text x="0" y="0" text-anchor="end" stroke="rgb(0,0,0)" opacity="1" stroke-opacity="1" fill="rgb(0,0,0)" fill-opacity="1" font-size="9.6" font-weight="normal" font-style="normal">
                  <tspan dy="4" x="0">0</tspan>
                </text>
              </g>
            </g>
            <g id="plot_01.ticklabels.left.panel.1.1.1.2" transform="translate(33.67, 123.09)" stroke-width="0.1">
              <g transform="scale(1, -1)">
                <text x="0" y="0" text-anchor="end" stroke="rgb(0,0,0)" opacity="1" stroke-opacity="1" fill="rgb(0,0,0)" fill-opacity="1" font-size="9.6" font-weight="normal" font-style="normal">
                  <tspan dy="4" x="0">2</tspan>
                </text>
              </g>
            </g>
            <g id="plot_01.ticklabels.left.panel.1.1.1.3" transform="translate(33.67, 184.04)" stroke-width="0.1">
              <g transform="scale(1, -1)">
                <text x="0" y="0" text-anchor="end" stroke="rgb(0,0,0)" opacity="1" stroke-opacity="1" fill="rgb(0,0,0)" fill-opacity="1" font-size="9.6" font-weight="normal" font-style="normal">
                  <tspan dy="4" x="0">4</tspan>
                </text>
              </g>
            </g>
            <g id="plot_01.ticklabels.left.panel.1.1.1.4" transform="translate(33.67, 244.99)" stroke-width="0.1">
              <g transform="scale(1, -1)">
                <text x="0" y="0" text-anchor="end" stroke="rgb(0,0,0)" opacity="1" stroke-opacity="1" fill="rgb(0,0,0)" fill-opacity="1" font-size="9.6" font-weight="normal" font-style="normal">
                  <tspan dy="4" x="0">6</tspan>
                </text>
              </g>
            </g>
            <g id="plot_01.ticklabels.left.panel.1.1.1.5" transform="translate(33.67, 305.94)" stroke-width="0.1">
              <g transform="scale(1, -1)">
                <text x="0" y="0" text-anchor="end" stroke="rgb(0,0,0)" opacity="1" stroke-opacity="1" fill="rgb(0,0,0)" fill-opacity="1" font-size="9.6" font-weight="normal" font-style="normal">
                  <tspan dy="4" x="0">8</tspan>
                </text>
              </g>
            </g>
          </g>
        </g>
        <g id="plot_01.toplevel.vp::plot_01.panel.1.1.off.vp.1">
          <g id="plot_01.ticks.bottom.panel.1.1.1">
            <polyline id="plot_01.ticks.bottom.panel.1.1.1.1" points="55.83,53.01 55.83,47.34" stroke="rgb(0,0,0)" opacity="1" stroke-dasharray="none" stroke-width="1" stroke-opacity="1" fill="none"/>
            <polyline id="plot_01.ticks.bottom.panel.1.1.1.2" points="179.5,53.01 179.5,47.34" stroke="rgb(0,0,0)" opacity="1" stroke-dasharray="none" stroke-width="1" stroke-opacity="1" fill="none"/>
            <polyline id="plot_01.ticks.bottom.panel.1.1.1.3" points="303.17,53.01 303.17,47.34" stroke="rgb(0,0,0)" opacity="1" stroke-dasharray="none" stroke-width="1" stroke-opacity="1" fill="none"/>
            <polyline id="plot_01.ticks.bottom.panel.1.1.1.4" points="426.84,53.01 426.84,47.34" stroke="rgb(0,0,0)" opacity="1" stroke-dasharray="none" stroke-width="1" stroke-opacity="1" fill="none"/>
            <polyline id="plot_01.ticks.bottom.panel.1.1.1.5" points="550.51,53.01 550.51,47.34" stroke="rgb(0,0,0)" opacity="1" stroke-dasharray="none" stroke-width="1" stroke-opacity="1" fill="none"/>
          </g>
          <g id="plot_01.ticklabels.bottom.panel.1.1.1">
            <g id="plot_01.ticklabels.bottom.panel.1.1.1.1" transform="translate(179.5, 41.67)" stroke-width="0.1">
              <g transform="scale(1, -1)">
                <text x="0" y="0" text-anchor="middle" stroke="rgb(0,0,0)" opacity="1" stroke-opacity="1" fill="rgb(0,0,0)" fill-opacity="1" font-size="9.6" font-weight="normal" font-style="normal">
                  <tspan dy="8" x="0">2</tspan>
                </text>
              </g>
            </g>
            <g id="plot_01.ticklabels.bottom.panel.1.1.1.2" transform="translate(303.17, 41.67)" stroke-width="0.1">
              <g transform="scale(1, -1)">
                <text x="0" y="0" text-anchor="middle" stroke="rgb(0,0,0)" opacity="1" stroke-opacity="1" fill="rgb(0,0,0)" fill-opacity="1" font-size="9.6" font-weight="normal" font-style="normal">
                  <tspan dy="8" x="0">4</tspan>
                </text>
              </g>
            </g>
            <g id="plot_01.ticklabels.bottom.panel.1.1.1.3" transform="translate(426.84, 41.67)" stroke-width="0.1">
              <g transform="scale(1, -1)">
                <text x="0" y="0" text-anchor="middle" stroke="rgb(0,0,0)" opacity="1" stroke-opacity="1" fill="rgb(0,0,0)" fill-opacity="1" font-size="9.6" font-weight="normal" font-style="normal">
                  <tspan dy="8" x="0">6</tspan>
                </text>
              </g>
            </g>
            <g id="plot_01.ticklabels.bottom.panel.1.1.1.4" transform="translate(550.51, 41.67)" stroke-width="0.1">
              <g transform="scale(1, -1)">
                <text x="0" y="0" text-anchor="middle" stroke="rgb(0,0,0)" opacity="1" stroke-opacity="1" fill="rgb(0,0,0)" fill-opacity="1" font-size="9.6" font-weight="normal" font-style="normal">
                  <tspan dy="8" x="0">8</tspan>
                </text>
              </g>
            </g>
          </g>
          <g id="plot_01.ticks.right.panel.1.1.1">
            <polyline id="plot_01.ticks.right.panel.1.1.1.1" points="622.07,62.14 627.74,62.14" stroke="rgb(0,0,0)" opacity="1" stroke-dasharray="none" stroke-width="1" stroke-opacity="1" fill="none"/>
            <polyline id="plot_01.ticks.right.panel.1.1.1.2" points="622.07,123.09 627.74,123.09" stroke="rgb(0,0,0)" opacity="1" stroke-dasharray="none" stroke-width="1" stroke-opacity="1" fill="none"/>
            <polyline id="plot_01.ticks.right.panel.1.1.1.3" points="622.07,184.04 627.74,184.04" stroke="rgb(0,0,0)" opacity="1" stroke-dasharray="none" stroke-width="1" stroke-opacity="1" fill="none"/>
            <polyline id="plot_01.ticks.right.panel.1.1.1.4" points="622.07,244.99 627.74,244.99" stroke="rgb(0,0,0)" opacity="1" stroke-dasharray="none" stroke-width="1" stroke-opacity="1" fill="none"/>
            <polyline id="plot_01.ticks.right.panel.1.1.1.5" points="622.07,305.94 627.74,305.94" stroke="rgb(0,0,0)" opacity="1" stroke-dasharray="none" stroke-width="1" stroke-opacity="1" fill="none"/>
          </g>
        </g>
        <defs>
          <clipPath id="plot_01.toplevel.vp::plot_01.panel.1.1.vp.2.clipPath">
            <rect x="45.01" y="53.01" width="577.06" height="302.98" fill="none" stroke="none"/>
          </clipPath>
        </defs>
        <g id="plot_01.toplevel.vp::plot_01.panel.1.1.vp.2" clip-path="url(#plot_01.toplevel.vp::plot_01.panel.1.1.vp.2.clipPath)">
          <g id="GRID.polygon.1529.1">
            <polygon id="GRID.polygon.1529.1.1" points="78.94,71.97 4.71,81.71 4.71,35.79 115.74,35.79 114.12,42.12" fill="rgb(128,255,255)" stroke="none" opacity="1" stroke-opacity="0" fill-opacity="1"/>
            <polygon id="GRID.polygon.1529.1.2" points="155.34,79.01 138.76,94.46 106.33,96.36 78.94,71.97 114.12,42.12" fill="rgb(161,255,255)" stroke="none" opacity="1" stroke-opacity="0" fill-opacity="1"/>
            <polygon id="GRID.polygon.1529.1.3" points="208.23,77.04 155.34,79.01 114.12,42.12 115.74,35.79 239.46,35.79" fill="rgb(179,255,255)" stroke="none" opacity="1" stroke-opacity="0" fill-opacity="1"/>
            <polygon id="GRID.polygon.1529.1.4" points="290.67,79.33 276.15,92.02 216.33,88.72 208.23,77.04 239.46,35.79 245.66,35.79" fill="rgb(212,255,255)" stroke="none" opacity="1" stroke-opacity="0" fill-opacity="1"/>
            <polygon id="GRID.polygon.1529.1.5" points="336.33,80.25 290.67,79.33 245.66,35.79 373.86,35.79" fill="rgb(212,255,255)" stroke="none" opacity="1" stroke-opacity="0" fill-opacity="1"/>
            <polygon id="GRID.polygon.1529.1.6" points="407.06,76.75 389.96,94.49 350.81,92.81 336.33,80.25 373.86,35.79 379.62,35.79" fill="rgb(212,255,255)" stroke="none" opacity="1" stroke-opacity="0" fill-opacity="1"/>
            <polygon id="GRID.polygon.1529.1.7" points="453.73,80.07 407.06,76.75 379.62,35.79 482.3,35.79" fill="rgb(212,255,255)" stroke="none" opacity="1" stroke-opacity="0" fill-opacity="1"/>
            <polygon id="GRID.polygon.1529.1.8" points="524.6,76.89 506.57,92.47 465.41,93.39 453.73,80.07 482.3,35.79 501.6,35.79" fill="rgb(194,255,255)" stroke="none" opacity="1" stroke-opacity="0" fill-opacity="1"/>
            <polygon id="GRID.polygon.1529.1.9" points="567.94,81.5 524.6,76.89 501.6,35.79 629.97,35.79" fill="rgb(194,255,255)" stroke="none" opacity="1" stroke-opacity="0" fill-opacity="1"/>
            <polygon id="GRID.polygon.1529.1.10" points="662.05,84.52 583.04,97.33 567.94,81.5 629.97,35.79 662.05,35.79" fill="rgb(179,255,255)" stroke="none" opacity="1" stroke-opacity="0" fill-opacity="1"/>
            <polygon id="GRID.polygon.1529.1.11" points="106.33,96.36 89.8,109.43 4.71,107.54 4.71,81.71 78.94,71.97" fill="rgb(179,255,255)" stroke="none" opacity="1" stroke-opacity="0" fill-opacity="1"/>
            <polygon id="GRID.polygon.1529.1.12" points="143.29,129.65 101.78,125 89.8,109.43 106.33,96.36 138.76,94.46 165.49,109.27" fill="rgb(194,255,255)" stroke="none" opacity="1" stroke-opacity="0" fill-opacity="1"/>
            <polygon id="GRID.polygon.1529.1.13" points="205.55,108.14 165.49,109.27 138.76,94.46 155.34,79.01 208.23,77.04 216.33,88.72" fill="rgb(212,255,255)" stroke="none" opacity="1" stroke-opacity="0" fill-opacity="1"/>
            <polygon id="GRID.polygon.1529.1.14" points="257.52,119.33 220.98,118.79 205.55,108.14 216.33,88.72 276.15,92.02 280.94,103.36" fill="rgb(230,255,255)" stroke="none" opacity="1" stroke-opacity="0" fill-opacity="1"/>
            <polygon id="GRID.polygon.1529.1.15" points="331.03,111.8 280.94,103.36 276.15,92.02 290.67,79.33 336.33,80.25 350.81,92.81" fill="rgb(245,255,255)" stroke="none" opacity="1" stroke-opacity="0" fill-opacity="1"/>
            <polygon id="GRID.polygon.1529.1.16" points="388.9,125.63 335.16,121.23 331.03,111.8 350.81,92.81 389.96,94.49 412.11,108.41" fill="rgb(245,255,255)" stroke="none" opacity="1" stroke-opacity="0" fill-opacity="1"/>
            <polygon id="GRID.polygon.1529.1.17" points="444.26,108.76 412.11,108.41 389.96,94.49 407.06,76.75 453.73,80.07 465.41,93.39" fill="rgb(245,255,255)" stroke="none" opacity="1" stroke-opacity="0" fill-opacity="1"/>
            <polygon id="GRID.polygon.1529.1.18" points="530.16,112.33 515.18,128.24 462.89,124.27 444.26,108.76 465.41,93.39 506.57,92.47" fill="rgb(230,255,255)" stroke="none" opacity="1" stroke-opacity="0" fill-opacity="1"/>
            <polygon id="GRID.polygon.1529.1.19" points="583.04,97.33 575.84,107.15 530.16,112.33 506.57,92.47 524.6,76.89 567.94,81.5" fill="rgb(212,255,255)" stroke="none" opacity="1" stroke-opacity="0" fill-opacity="1"/>
            <polygon id="GRID.polygon.1529.1.20" points="662.05,123.89 602.98,125.23 575.84,107.15 583.04,97.33 662.05,84.52" fill="rgb(194,255,255)" stroke="none" opacity="1" stroke-opacity="0" fill-opacity="1"/>
            <polygon id="GRID.polygon.1529.1.21" points="78.18,142.04 4.71,142.76 4.71,107.54 89.8,109.43 101.78,125" fill="rgb(194,255,255)" stroke="none" opacity="1" stroke-opacity="0" fill-opacity="1"/>
            <polygon id="GRID.polygon.1529.1.22" points="138.48,154.46 101.17,158.5 78.18,142.04 101.78,125 143.29,129.65 147.44,133.5" fill="rgb(212,255,255)" stroke="none" opacity="1" stroke-opacity="0" fill-opacity="1"/>
            <polygon id="GRID.polygon.1529.1.23" points="206.16,140.53 147.44,133.5 143.29,129.65 165.49,109.27 205.55,108.14 220.98,118.79" fill="rgb(245,255,255)" stroke="none" opacity="1" stroke-opacity="0" fill-opacity="1"/>
            <polygon id="GRID.polygon.1529.1.24" points="265.37,152.97 211.92,149.96 206.16,140.53 220.98,118.79 257.52,119.33 282.53,135.93" fill="rgb(255,245,255)" stroke="none" opacity="1" stroke-opacity="0" fill-opacity="1"/>
            <polygon id="GRID.polygon.1529.1.25" points="335.16,121.23 321.75,133.05 282.53,135.93 257.52,119.33 280.94,103.36 331.03,111.8" fill="rgb(255,245,255)" stroke="none" opacity="1" stroke-opacity="0" fill-opacity="1"/>
            <polygon id="GRID.polygon.1529.1.26" points="398.07,141.94 391.62,152.32 338.23,149.49 321.75,133.05 335.16,121.23 388.9,125.63" fill="rgb(255,230,255)" stroke="none" opacity="1" stroke-opacity="0" fill-opacity="1"/>
            <polygon id="GRID.polygon.1529.1.27" points="462.89,124.27 451.09,135.53 398.07,141.94 388.9,125.63 412.11,108.41 444.26,108.76" fill="rgb(255,230,255)" stroke="none" opacity="1" stroke-opacity="0" fill-opacity="1"/>
            <polygon id="GRID.polygon.1529.1.28" points="505.83,151.61 463.69,158.19 451.09,135.53 462.89,124.27 515.18,128.24 518.31,132.22" fill="rgb(255,245,255)" stroke="none" opacity="1" stroke-opacity="0" fill-opacity="1"/>
            <polygon id="GRID.polygon.1529.1.29" points="602.98,125.23 578.97,144.89 518.31,132.22 515.18,128.24 530.16,112.33 575.84,107.15" fill="rgb(230,255,255)" stroke="none" opacity="1" stroke-opacity="0" fill-opacity="1"/>
            <polygon id="GRID.polygon.1529.1.30" points="662.05,159.04 581.26,150.77 578.97,144.89 602.98,125.23 662.05,123.89" fill="rgb(212,255,255)" stroke="none" opacity="1" stroke-opacity="0" fill-opacity="1"/>
            <polygon id="GRID.polygon.1529.1.31" points="101.17,158.5 91.72,172.3 4.71,173.13 4.71,142.76 78.18,142.04" fill="rgb(212,255,255)" stroke="none" opacity="1" stroke-opacity="0" fill-opacity="1"/>
            <polygon id="GRID.polygon.1529.1.32" points="137.35,187.9 100.38,180.79 91.72,172.3 101.17,158.5 138.48,154.46 170.82,168.73" fill="rgb(230,255,255)" stroke="none" opacity="1" stroke-opacity="0" fill-opacity="1"/>
            <polygon id="GRID.polygon.1529.1.33" points="191.52,168.08 170.82,168.73 138.48,154.46 147.44,133.5 206.16,140.53 211.92,149.96" fill="rgb(245,255,255)" stroke="none" opacity="1" stroke-opacity="0" fill-opacity="1"/>
            <polygon id="GRID.polygon.1529.1.34" points="263.72,183.46 215.61,184.49 191.52,168.08 211.92,149.96 265.37,152.97 279.14,166.76" fill="rgb(255,230,255)" stroke="none" opacity="1" stroke-opacity="0" fill-opacity="1"/>
            <polygon id="GRID.polygon.1529.1.35" points="320.37,166.19 279.14,166.76 265.37,152.97 282.53,135.93 321.75,133.05 338.23,149.49" fill="rgb(255,212,255)" stroke="none" opacity="1" stroke-opacity="0" fill-opacity="1"/>
            <polygon id="GRID.polygon.1529.1.36" points="383.51,179.06 341.41,180.34 320.37,166.19 338.23,149.49 391.62,152.32 399.32,161.47" fill="rgb(255,194,255)" stroke="none" opacity="1" stroke-opacity="0" fill-opacity="1"/>
            <polygon id="GRID.polygon.1529.1.37" points="463.69,158.19 454.16,165.45 399.32,161.47 391.62,152.32 398.07,141.94 451.09,135.53" fill="rgb(255,212,255)" stroke="none" opacity="1" stroke-opacity="0" fill-opacity="1"/>
            <polygon id="GRID.polygon.1529.1.38" points="532.49,170.17 515.84,187.79 468.16,184.98 454.16,165.45 463.69,158.19 505.83,151.61" fill="rgb(255,230,255)" stroke="none" opacity="1" stroke-opacity="0" fill-opacity="1"/>
            <polygon id="GRID.polygon.1529.1.39" points="571.76,163.39 532.49,170.17 505.83,151.61 518.31,132.22 578.97,144.89 581.26,150.77" fill="rgb(255,245,255)" stroke="none" opacity="1" stroke-opacity="0" fill-opacity="1"/>
            <polygon id="GRID.polygon.1529.1.40" points="662.05,185.76 598.53,181.88 571.76,163.39 581.26,150.77 662.05,159.04" fill="rgb(230,255,255)" stroke="none" opacity="1" stroke-opacity="0" fill-opacity="1"/>
            <polygon id="GRID.polygon.1529.1.41" points="70.77,203.85 4.71,193.25 4.71,173.13 91.72,172.3 100.38,180.79" fill="rgb(212,255,255)" stroke="none" opacity="1" stroke-opacity="0" fill-opacity="1"/>
            <polygon id="GRID.polygon.1529.1.42" points="145.34,203.56 135.51,213.43 91.91,220.1 70.77,203.85 100.38,180.79 137.35,187.9" fill="rgb(230,255,255)" stroke="none" opacity="1" stroke-opacity="0" fill-opacity="1"/>
            <polygon id="GRID.polygon.1529.1.43" points="203.49,201.55 145.34,203.56 137.35,187.9 170.82,168.73 191.52,168.08 215.61,184.49" fill="rgb(255,230,255)" stroke="none" opacity="1" stroke-opacity="0" fill-opacity="1"/>
            <polygon id="GRID.polygon.1529.1.44" points="283.3,199.45 263.57,213.29 212.74,211.53 203.49,201.55 215.61,184.49 263.72,183.46" fill="rgb(255,194,255)" stroke="none" opacity="1" stroke-opacity="0" fill-opacity="1"/>
            <polygon id="GRID.polygon.1529.1.45" points="318.5,202.09 283.3,199.45 263.72,183.46 279.14,166.76 320.37,166.19 341.41,180.34" fill="rgb(255,179,255)" stroke="none" opacity="1" stroke-opacity="0" fill-opacity="1"/>
            <polygon id="GRID.polygon.1529.1.46" points="383.98,215.24 335.98,213.62 318.5,202.09 341.41,180.34 383.51,179.06 402.04,197.29" fill="rgb(255,161,255)" stroke="none" opacity="1" stroke-opacity="0" fill-opacity="1"/>
            <polygon id="GRID.polygon.1529.1.47" points="468.16,184.98 449.93,195.29 402.04,197.29 383.51,179.06 399.32,161.47 454.16,165.45" fill="rgb(255,179,255)" stroke="none" opacity="1" stroke-opacity="0" fill-opacity="1"/>
            <polygon id="GRID.polygon.1529.1.48" points="522.86,212.78 462.46,216.73 449.93,195.29 468.16,184.98 515.84,187.79 526.14,196.16" fill="rgb(255,194,255)" stroke="none" opacity="1" stroke-opacity="0" fill-opacity="1"/>
            <polygon id="GRID.polygon.1529.1.49" points="574.7,195.66 526.14,196.16 515.84,187.79 532.49,170.17 571.76,163.39 598.53,181.88" fill="rgb(255,245,255)" stroke="none" opacity="1" stroke-opacity="0" fill-opacity="1"/>
            <polygon id="GRID.polygon.1529.1.50" points="662.05,212.3 595.15,218.03 574.7,195.66 598.53,181.88 662.05,185.76" fill="rgb(245,255,255)" stroke="none" opacity="1" stroke-opacity="0" fill-opacity="1"/>
            <polygon id="GRID.polygon.1529.1.51" points="91.91,220.1 81.03,233.21 4.71,233.14 4.71,193.25 70.77,203.85" fill="rgb(212,255,255)" stroke="none" opacity="1" stroke-opacity="0" fill-opacity="1"/>
            <polygon id="GRID.polygon.1529.1.52" points="146.04,252.83 87.93,242.77 81.03,233.21 91.91,220.1 135.51,213.43 158.82,228.11" fill="rgb(245,255,255)" stroke="none" opacity="1" stroke-opacity="0" fill-opacity="1"/>
            <polygon id="GRID.polygon.1529.1.53" points="203.4,227.75 158.82,228.11 135.51,213.43 145.34,203.56 203.49,201.55 212.74,211.53" fill="rgb(255,230,255)" stroke="none" opacity="1" stroke-opacity="0" fill-opacity="1"/>
            <polygon id="GRID.polygon.1529.1.54" points="270.57,235.38 259.21,242.69 217.66,240.02 203.4,227.75 212.74,211.53 263.57,213.29" fill="rgb(255,194,255)" stroke="none" opacity="1" stroke-opacity="0" fill-opacity="1"/>
            <polygon id="GRID.polygon.1529.1.55" points="318.44,232.34 270.57,235.38 263.57,213.29 283.3,199.45 318.5,202.09 335.98,213.62" fill="rgb(255,161,255)" stroke="none" opacity="1" stroke-opacity="0" fill-opacity="1"/>
            <polygon id="GRID.polygon.1529.1.56" points="401.74,231.82 390.48,247.81 338.76,249.81 318.44,232.34 335.98,213.62 383.98,215.24" fill="rgb(255,128,255)" stroke="none" opacity="1" stroke-opacity="0" fill-opacity="1"/>
            <polygon id="GRID.polygon.1529.1.57" points="462.46,216.73 452.29,229.34 401.74,231.82 383.98,215.24 402.04,197.29 449.93,195.29" fill="rgb(255,161,255)" stroke="none" opacity="1" stroke-opacity="0" fill-opacity="1"/>
            <polygon id="GRID.polygon.1529.1.58" points="508.05,240.53 473.51,241.42 452.29,229.34 462.46,216.73 522.86,212.78 534.36,225.52" fill="rgb(255,194,255)" stroke="none" opacity="1" stroke-opacity="0" fill-opacity="1"/>
            <polygon id="GRID.polygon.1529.1.59" points="595.15,218.03 571.26,230.36 534.36,225.52 522.86,212.78 526.14,196.16 574.7,195.66" fill="rgb(255,230,255)" stroke="none" opacity="1" stroke-opacity="0" fill-opacity="1"/>
            <polygon id="GRID.polygon.1529.1.60" points="662.05,247.17 581.8,244.6 571.26,230.36 595.15,218.03 662.05,212.3" fill="rgb(245,255,255)" stroke="none" opacity="1" stroke-opacity="0" fill-opacity="1"/>
            <polygon id="GRID.polygon.1529.1.61" points="71.03,262.88 4.71,270.66 4.71,233.14 81.03,233.21 87.93,242.77" fill="rgb(194,255,255)" stroke="none" opacity="1" stroke-opacity="0" fill-opacity="1"/>
            <polygon id="GRID.polygon.1529.1.62" points="147.87,271.76 91.8,275.88 71.03,262.88 87.93,242.77 146.04,252.83 155.21,260" fill="rgb(230,255,255)" stroke="none" opacity="1" stroke-opacity="0" fill-opacity="1"/>
            <polygon id="GRID.polygon.1529.1.63" points="193.18,256.78 155.21,260 146.04,252.83 158.82,228.11 203.4,227.75 217.66,240.02" fill="rgb(255,230,255)" stroke="none" opacity="1" stroke-opacity="0" fill-opacity="1"/>
            <polygon id="GRID.polygon.1529.1.64" points="268.77,258.78 261.18,269.59 224.7,274.89 193.18,256.78 217.66,240.02 259.21,242.69" fill="rgb(255,212,255)" stroke="none" opacity="1" stroke-opacity="0" fill-opacity="1"/>
            <polygon id="GRID.polygon.1529.1.65" points="338.76,249.81 326.71,259.46 268.77,258.78 259.21,242.69 270.57,235.38 318.44,232.34" fill="rgb(255,179,255)" stroke="none" opacity="1" stroke-opacity="0" fill-opacity="1"/>
            <polygon id="GRID.polygon.1529.1.66" points="382.51,280.68 334.14,279.27 326.71,259.46 338.76,249.81 390.48,247.81 399.21,257.17" fill="rgb(255,161,255)" stroke="none" opacity="1" stroke-opacity="0" fill-opacity="1"/>
            <polygon id="GRID.polygon.1529.1.67" points="456.36,265.61 399.21,257.17 390.48,247.81 401.74,231.82 452.29,229.34 473.51,241.42" fill="rgb(255,179,255)" stroke="none" opacity="1" stroke-opacity="0" fill-opacity="1"/>
            <polygon id="GRID.polygon.1529.1.68" points="526.71,261.66 510.02,274.56 466.84,275.63 456.36,265.61 473.51,241.42 508.05,240.53" fill="rgb(255,212,255)" stroke="none" opacity="1" stroke-opacity="0" fill-opacity="1"/>
            <polygon id="GRID.polygon.1529.1.69" points="581.8,244.6 572.63,258.93 526.71,261.66 508.05,240.53 534.36,225.52 571.26,230.36" fill="rgb(255,230,255)" stroke="none" opacity="1" stroke-opacity="0" fill-opacity="1"/>
            <polygon id="GRID.polygon.1529.1.70" points="662.05,276.04 591.72,276.28 572.63,258.93 581.8,244.6 662.05,247.17" fill="rgb(245,255,255)" stroke="none" opacity="1" stroke-opacity="0" fill-opacity="1"/>
            <polygon id="GRID.polygon.1529.1.71" points="84.13,294.93 4.71,294.95 4.71,270.66 71.03,262.88 91.8,275.88" fill="rgb(194,255,255)" stroke="none" opacity="1" stroke-opacity="0" fill-opacity="1"/>
            <polygon id="GRID.polygon.1529.1.72" points="160.28,290.26 138.22,301.95 99.13,304.1 84.13,294.93 91.8,275.88 147.87,271.76" fill="rgb(230,255,255)" stroke="none" opacity="1" stroke-opacity="0" fill-opacity="1"/>
            <polygon id="GRID.polygon.1529.1.73" points="204.17,295.97 160.28,290.26 147.87,271.76 155.21,260 193.18,256.78 224.7,274.89" fill="rgb(255,245,255)" stroke="none" opacity="1" stroke-opacity="0" fill-opacity="1"/>
            <polygon id="GRID.polygon.1529.1.74" points="272.13,304.76 217.19,306.04 204.17,295.97 224.7,274.89 261.18,269.59 285.09,287.87" fill="rgb(255,212,255)" stroke="none" opacity="1" stroke-opacity="0" fill-opacity="1"/>
            <polygon id="GRID.polygon.1529.1.75" points="334.14,279.27 326.96,283.23 285.09,287.87 261.18,269.59 268.77,258.78 326.71,259.46" fill="rgb(255,194,255)" stroke="none" opacity="1" stroke-opacity="0" fill-opacity="1"/>
            <polygon id="GRID.polygon.1529.1.76" points="387.67,305.83 342.11,310.49 326.96,283.23 334.14,279.27 382.51,280.68 395.91,291.84" fill="rgb(255,194,255)" stroke="none" opacity="1" stroke-opacity="0" fill-opacity="1"/>
            <polygon id="GRID.polygon.1529.1.77" points="455.08,288.64 395.91,291.84 382.51,280.68 399.21,257.17 456.36,265.61 466.84,275.63" fill="rgb(255,194,255)" stroke="none" opacity="1" stroke-opacity="0" fill-opacity="1"/>
            <polygon id="GRID.polygon.1529.1.78" points="531.89,289.36 507.01,307.45 462.97,299.79 455.08,288.64 466.84,275.63 510.02,274.56" fill="rgb(255,230,255)" stroke="none" opacity="1" stroke-opacity="0" fill-opacity="1"/>
            <polygon id="GRID.polygon.1529.1.79" points="591.72,276.28 570.11,292.48 531.89,289.36 510.02,274.56 526.71,261.66 572.63,258.93" fill="rgb(255,245,255)" stroke="none" opacity="1" stroke-opacity="0" fill-opacity="1"/>
            <polygon id="GRID.polygon.1529.1.80" points="662.05,307.62 583.27,313.25 570.11,292.48 591.72,276.28 662.05,276.04" fill="rgb(230,255,255)" stroke="none" opacity="1" stroke-opacity="0" fill-opacity="1"/>
            <polygon id="GRID.polygon.1529.1.81" points="83.42,327.2 4.71,318.44 4.71,294.95 84.13,294.93 99.13,304.1" fill="rgb(179,255,255)" stroke="none" opacity="1" stroke-opacity="0" fill-opacity="1"/>
            <polygon id="GRID.polygon.1529.1.82" points="156.07,327.64 145.44,339.9 88.73,332.28 83.42,327.2 99.13,304.1 138.22,301.95" fill="rgb(212,255,255)" stroke="none" opacity="1" stroke-opacity="0" fill-opacity="1"/>
            <polygon id="GRID.polygon.1529.1.83" points="211.35,315.74 156.07,327.64 138.22,301.95 160.28,290.26 204.17,295.97 217.19,306.04" fill="rgb(230,255,255)" stroke="none" opacity="1" stroke-opacity="0" fill-opacity="1"/>
            <polygon id="GRID.polygon.1529.1.84" points="258.41,340.6 226.7,337.29 211.35,315.74 217.19,306.04 272.13,304.76 290.74,317.56" fill="rgb(255,245,255)" stroke="none" opacity="1" stroke-opacity="0" fill-opacity="1"/>
            <polygon id="GRID.polygon.1529.1.85" points="342.11,310.49 323.11,321.56 290.74,317.56 272.13,304.76 285.09,287.87 326.96,283.23" fill="rgb(255,230,255)" stroke="none" opacity="1" stroke-opacity="0" fill-opacity="1"/>
            <polygon id="GRID.polygon.1529.1.86" points="385.99,339.73 338.09,338.1 323.11,321.56 342.11,310.49 387.67,305.83 406.41,321.41" fill="rgb(255,230,255)" stroke="none" opacity="1" stroke-opacity="0" fill-opacity="1"/>
            <polygon id="GRID.polygon.1529.1.87" points="444.44,321.7 406.41,321.41 387.67,305.83 395.91,291.84 455.08,288.64 462.97,299.79" fill="rgb(255,230,255)" stroke="none" opacity="1" stroke-opacity="0" fill-opacity="1"/>
            <polygon id="GRID.polygon.1529.1.88" points="518.6,323.99 508.16,332.71 465.61,334.47 444.44,321.7 462.97,299.79 507.01,307.45" fill="rgb(255,245,255)" stroke="none" opacity="1" stroke-opacity="0" fill-opacity="1"/>
            <polygon id="GRID.polygon.1529.1.89" points="583.27,313.25 578.66,317.8 518.6,323.99 507.01,307.45 531.89,289.36 570.11,292.48" fill="rgb(245,255,255)" stroke="none" opacity="1" stroke-opacity="0" fill-opacity="1"/>
            <polygon id="GRID.polygon.1529.1.90" points="662.05,338.82 590.01,338.24 578.66,317.8 583.27,313.25 662.05,307.62" fill="rgb(212,255,255)" stroke="none" opacity="1" stroke-opacity="0" fill-opacity="1"/>
            <polygon id="GRID.polygon.1529.1.91" points="47.52,376.6 4.71,376.6 4.71,318.44 83.42,327.2 88.73,332.28" fill="rgb(161,255,255)" stroke="none" opacity="1" stroke-opacity="0" fill-opacity="1"/>
            <polygon id="GRID.polygon.1529.1.92" points="169.94,366.34 169.06,376.6 47.52,376.6 88.73,332.28 145.44,339.9" fill="rgb(179,255,255)" stroke="none" opacity="1" stroke-opacity="0" fill-opacity="1"/>
            <polygon id="GRID.polygon.1529.1.93" points="169.94,366.34 145.44,339.9 156.07,327.64 211.35,315.74 226.7,337.29" fill="rgb(212,255,255)" stroke="none" opacity="1" stroke-opacity="0" fill-opacity="1"/>
            <polygon id="GRID.polygon.1529.1.94" points="298.95,375.03 298.92,376.6 169.06,376.6 169.94,366.34 226.7,337.29 258.41,340.6" fill="rgb(230,255,255)" stroke="none" opacity="1" stroke-opacity="0" fill-opacity="1"/>
            <polygon id="GRID.polygon.1529.1.95" points="298.95,375.03 258.41,340.6 290.74,317.56 323.11,321.56 338.09,338.1" fill="rgb(245,255,255)" stroke="none" opacity="1" stroke-opacity="0" fill-opacity="1"/>
            <polygon id="GRID.polygon.1529.1.96" points="427.82,376.6 298.92,376.6 298.95,375.03 338.09,338.1 385.99,339.73" fill="rgb(245,255,255)" stroke="none" opacity="1" stroke-opacity="0" fill-opacity="1"/>
            <polygon id="GRID.polygon.1529.1.97" points="428.26,376.6 427.82,376.6 385.99,339.73 406.41,321.41 444.44,321.7 465.61,334.47" fill="rgb(245,255,255)" stroke="none" opacity="1" stroke-opacity="0" fill-opacity="1"/>
            <polygon id="GRID.polygon.1529.1.98" points="550.73,376.6 428.26,376.6 465.61,334.47 508.16,332.71" fill="rgb(230,255,255)" stroke="none" opacity="1" stroke-opacity="0" fill-opacity="1"/>
            <polygon id="GRID.polygon.1529.1.99" points="558.79,376.6 550.73,376.6 508.16,332.71 518.6,323.99 578.66,317.8 590.01,338.24" fill="rgb(212,255,255)" stroke="none" opacity="1" stroke-opacity="0" fill-opacity="1"/>
            <polygon id="GRID.polygon.1529.1.100" points="662.05,376.6 558.79,376.6 590.01,338.24 662.05,338.82" fill="rgb(194,255,255)" stroke="none" opacity="1" stroke-opacity="0" fill-opacity="1"/>
          </g>
        </g>
        <g id="plot_01.toplevel.vp::plot_01.panel.1.1.off.vp.2">
          <g id="plot_01.border.panel.1.1.1">
            <rect id="plot_01.border.panel.1.1.1.1" x="45.01" y="53.01" width="577.06" height="302.98" stroke="rgb(0,0,0)" stroke-dasharray="none" stroke-width="1" opacity="1" fill="none" stroke-opacity="1" fill-opacity="0"/>
          </g>
        </g>
        <g id="plot_01.toplevel.vp::plot_01.legend.right.vp.1">
          <g id="plot_01.toplevel.vp::plot_01.legend.right.vp::GRID.VP.66.1">
            <g id="plot_01.colorkey.frame.1">
              <g id="plot_01.toplevel.vp::plot_01.legend.right.vp::GRID.VP.66::GRID.VP.68.1">
                <g id="GRID.cellGrob.1521.1">
                  <g id="plot_01.toplevel.vp::plot_01.legend.right.vp::GRID.VP.66::GRID.VP.68::GRID.VP.67.1">
                    <g id="plot_01.colorkey.image.1">
                      <rect id="plot_01.colorkey.image.1.1" x="645.08" y="53.01" width="17.28" height="18.94" fill="rgb(255,128,255)" stroke="none" opacity="1" stroke-opacity="0" fill-opacity="1"/>
                      <rect id="plot_01.colorkey.image.1.2" x="645.08" y="71.94" width="17.28" height="18.94" fill="rgb(255,145,255)" stroke="none" opacity="1" stroke-opacity="0" fill-opacity="1"/>
                      <rect id="plot_01.colorkey.image.1.3" x="645.08" y="90.88" width="17.28" height="18.94" fill="rgb(255,161,255)" stroke="none" opacity="1" stroke-opacity="0" fill-opacity="1"/>
                      <rect id="plot_01.colorkey.image.1.4" x="645.08" y="109.82" width="17.28" height="18.94" fill="rgb(255,179,255)" stroke="none" opacity="1" stroke-opacity="0" fill-opacity="1"/>
                      <rect id="plot_01.colorkey.image.1.5" x="645.08" y="128.75" width="17.28" height="18.94" fill="rgb(255,194,255)" stroke="none" opacity="1" stroke-opacity="0" fill-opacity="1"/>
                      <rect id="plot_01.colorkey.image.1.6" x="645.08" y="147.69" width="17.28" height="18.94" fill="rgb(255,212,255)" stroke="none" opacity="1" stroke-opacity="0" fill-opacity="1"/>
                      <rect id="plot_01.colorkey.image.1.7" x="645.08" y="166.63" width="17.28" height="18.94" fill="rgb(255,230,255)" stroke="none" opacity="1" stroke-opacity="0" fill-opacity="1"/>
                      <rect id="plot_01.colorkey.image.1.8" x="645.08" y="185.56" width="17.28" height="18.94" fill="rgb(255,245,255)" stroke="none" opacity="1" stroke-opacity="0" fill-opacity="1"/>
                      <rect id="plot_01.colorkey.image.1.9" x="645.08" y="204.5" width="17.28" height="18.94" fill="rgb(245,255,255)" stroke="none" opacity="1" stroke-opacity="0" fill-opacity="1"/>
                      <rect id="plot_01.colorkey.image.1.10" x="645.08" y="223.44" width="17.28" height="18.94" fill="rgb(230,255,255)" stroke="none" opacity="1" stroke-opacity="0" fill-opacity="1"/>
                      <rect id="plot_01.colorkey.image.1.11" x="645.08" y="242.37" width="17.28" height="18.94" fill="rgb(212,255,255)" stroke="none" opacity="1" stroke-opacity="0" fill-opacity="1"/>
                      <rect id="plot_01.colorkey.image.1.12" x="645.08" y="261.31" width="17.28" height="18.94" fill="rgb(194,255,255)" stroke="none" opacity="1" stroke-opacity="0" fill-opacity="1"/>
                      <rect id="plot_01.colorkey.image.1.13" x="645.08" y="280.25" width="17.28" height="18.94" fill="rgb(179,255,255)" stroke="none" opacity="1" stroke-opacity="0" fill-opacity="1"/>
                      <rect id="plot_01.colorkey.image.1.14" x="645.08" y="299.18" width="17.28" height="18.94" fill="rgb(161,255,255)" stroke="none" opacity="1" stroke-opacity="0" fill-opacity="1"/>
                      <rect id="plot_01.colorkey.image.1.15" x="645.08" y="318.12" width="17.28" height="18.94" fill="rgb(145,255,255)" stroke="none" opacity="1" stroke-opacity="0" fill-opacity="1"/>
                      <rect id="plot_01.colorkey.image.1.16" x="645.08" y="337.06" width="17.28" height="18.94" fill="rgb(128,255,255)" stroke="none" opacity="1" stroke-opacity="0" fill-opacity="1"/>
                    </g>
                  </g>
                </g>
              </g>
              <g id="plot_01.toplevel.vp::plot_01.legend.right.vp::GRID.VP.66::GRID.VP.69.1">
                <g id="GRID.cellGrob.1522.1">
                  <g id="plot_01.colorkey.border.1">
                    <rect id="plot_01.colorkey.border.1.1" x="645.08" y="53.01" width="17.28" height="302.98" stroke="rgb(0,0,0)" stroke-dasharray="none" stroke-width="1" opacity="1" fill="none" stroke-opacity="1" fill-opacity="0"/>
                  </g>
                </g>
              </g>
              <g id="plot_01.toplevel.vp::plot_01.legend.right.vp::GRID.VP.66::GRID.VP.71.1">
                <g id="GRID.cellGrob.1523.1">
                  <g id="plot_01.toplevel.vp::plot_01.legend.right.vp::GRID.VP.66::GRID.VP.71::GRID.VP.70.1">
                    <g id="plot_01.colorkey.ticks.1">
                      <polyline id="plot_01.colorkey.ticks.1.1" points="662.36,63.79 666.68,63.79" stroke="rgb(0,0,0)" stroke-dasharray="none" stroke-width="1" stroke-opacity="1" fill="none"/>
                      <polyline id="plot_01.colorkey.ticks.1.2" points="662.36,101.29 666.68,101.29" stroke="rgb(0,0,0)" stroke-dasharray="none" stroke-width="1" stroke-opacity="1" fill="none"/>
                      <polyline id="plot_01.colorkey.ticks.1.3" points="662.36,138.78 666.68,138.78" stroke="rgb(0,0,0)" stroke-dasharray="none" stroke-width="1" stroke-opacity="1" fill="none"/>
                      <polyline id="plot_01.colorkey.ticks.1.4" points="662.36,176.28 666.68,176.28" stroke="rgb(0,0,0)" stroke-dasharray="none" stroke-width="1" stroke-opacity="1" fill="none"/>
                      <polyline id="plot_01.colorkey.ticks.1.5" points="662.36,213.78 666.68,213.78" stroke="rgb(0,0,0)" stroke-dasharray="none" stroke-width="1" stroke-opacity="1" fill="none"/>
                      <polyline id="plot_01.colorkey.ticks.1.6" points="662.36,251.27 666.68,251.27" stroke="rgb(0,0,0)" stroke-dasharray="none" stroke-width="1" stroke-opacity="1" fill="none"/>
                      <polyline id="plot_01.colorkey.ticks.1.7" points="662.36,288.77 666.68,288.77" stroke="rgb(0,0,0)" stroke-dasharray="none" stroke-width="1" stroke-opacity="1" fill="none"/>
                      <polyline id="plot_01.colorkey.ticks.1.8" points="662.36,326.27 666.68,326.27" stroke="rgb(0,0,0)" stroke-dasharray="none" stroke-width="1" stroke-opacity="1" fill="none"/>
                    </g>
                  </g>
                </g>
              </g>
              <g id="plot_01.toplevel.vp::plot_01.legend.right.vp::GRID.VP.66::GRID.VP.72.1">
                <g id="GRID.cellGrob.1524.1">
                  <g id="plot_01.toplevel.vp::plot_01.legend.right.vp::GRID.VP.66::GRID.VP.72::GRID.VP.65.1">
                    <g id="plot_01.colorkey.labels.1">
                      <g id="plot_01.colorkey.labels.1.1" transform="translate(671, 63.79)" stroke-width="0.1">
                        <g transform="scale(1, -1)">
                          <text x="0" y="0" text-anchor="start" stroke="rgb(0,0,0)" stroke-opacity="1" fill="rgb(0,0,0)" fill-opacity="1" font-size="9.6" font-weight="normal" font-style="normal">
                            <tspan dy="4" x="0">0</tspan>
                          </text>
                        </g>
                      </g>
                      <g id="plot_01.colorkey.labels.1.2" transform="translate(671, 101.29)" stroke-width="0.1">
                        <g transform="scale(1, -1)">
                          <text x="0" y="0" text-anchor="start" stroke="rgb(0,0,0)" stroke-opacity="1" fill="rgb(0,0,0)" fill-opacity="1" font-size="9.6" font-weight="normal" font-style="normal">
                            <tspan dy="4" x="0">1</tspan>
                          </text>
                        </g>
                      </g>
                      <g id="plot_01.colorkey.labels.1.3" transform="translate(671, 138.78)" stroke-width="0.1">
                        <g transform="scale(1, -1)">
                          <text x="0" y="0" text-anchor="start" stroke="rgb(0,0,0)" stroke-opacity="1" fill="rgb(0,0,0)" fill-opacity="1" font-size="9.6" font-weight="normal" font-style="normal">
                            <tspan dy="4" x="0">2</tspan>
                          </text>
                        </g>
                      </g>
                      <g id="plot_01.colorkey.labels.1.4" transform="translate(671, 176.28)" stroke-width="0.1">
                        <g transform="scale(1, -1)">
                          <text x="0" y="0" text-anchor="start" stroke="rgb(0,0,0)" stroke-opacity="1" fill="rgb(0,0,0)" fill-opacity="1" font-size="9.6" font-weight="normal" font-style="normal">
                            <tspan dy="4" x="0">3</tspan>
                          </text>
                        </g>
                      </g>
                      <g id="plot_01.colorkey.labels.1.5" transform="translate(671, 213.78)" stroke-width="0.1">
                        <g transform="scale(1, -1)">
                          <text x="0" y="0" text-anchor="start" stroke="rgb(0,0,0)" stroke-opacity="1" fill="rgb(0,0,0)" fill-opacity="1" font-size="9.6" font-weight="normal" font-style="normal">
                            <tspan dy="4" x="0">4</tspan>
                          </text>
                        </g>
                      </g>
                      <g id="plot_01.colorkey.labels.1.6" transform="translate(671, 251.27)" stroke-width="0.1">
                        <g transform="scale(1, -1)">
                          <text x="0" y="0" text-anchor="start" stroke="rgb(0,0,0)" stroke-opacity="1" fill="rgb(0,0,0)" fill-opacity="1" font-size="9.6" font-weight="normal" font-style="normal">
                            <tspan dy="4" x="0">5</tspan>
                          </text>
                        </g>
                      </g>
                      <g id="plot_01.colorkey.labels.1.7" transform="translate(671, 288.77)" stroke-width="0.1">
                        <g transform="scale(1, -1)">
                          <text x="0" y="0" text-anchor="start" stroke="rgb(0,0,0)" stroke-opacity="1" fill="rgb(0,0,0)" fill-opacity="1" font-size="9.6" font-weight="normal" font-style="normal">
                            <tspan dy="4" x="0">6</tspan>
                          </text>
                        </g>
                      </g>
                      <g id="plot_01.colorkey.labels.1.8" transform="translate(671, 326.27)" stroke-width="0.1">
                        <g transform="scale(1, -1)">
                          <text x="0" y="0" text-anchor="start" stroke="rgb(0,0,0)" stroke-opacity="1" fill="rgb(0,0,0)" fill-opacity="1" font-size="9.6" font-weight="normal" font-style="normal">
                            <tspan dy="4" x="0">7</tspan>
                          </text>
                        </g>
                      </g>
                    </g>
                  </g>
                </g>
              </g>
            </g>
          </g>
        </g>
        <g id="plot_01.toplevel.vp::plot_01..1"/>
      </g>
    </g>
  </g>
</svg>