<?xml version="1.0" encoding="ISO8859-1"?>
<svg xmlns="http://www.w3.org/2000/svg" xmlns:xlink="http://www.w3.org/1999/xlink" width="683px" height="391px" viewBox="0 0 683 391" version="1.1">
  <metadata xmlns:gridsvg="http://www.stat.auckland.ac.nz/~paul/R/gridSVG/">
    <gridsvg:generator name="gridSVG" version="1.2-0" time="2013-05-29 11:01:03"/>
    <gridsvg:argument name="name" value="testtskernel2.svg"/>
    <gridsvg:argument name="exportCoords" value="none"/>
    <gridsvg:argument name="exportMappings" value="none"/>
    <gridsvg:argument name="exportJS" value="none"/>
    <gridsvg:argument name="res" value="72"/>
    <gridsvg:argument name="prefix" value=""/>
    <gridsvg:argument name="addClasses" value="FALSE"/>
    <gridsvg:argument name="indent" value="TRUE"/>
    <gridsvg:argument name="htmlWrapper" value="FALSE"/>
    <gridsvg:argument name="usePaths" value="vpPaths"/>
    <gridsvg:argument name="uniqueNames" value="TRUE"/>
    <gridsvg:separator name="id.sep" value="."/>
    <gridsvg:separator name="gPath.sep" value="::"/>
    <gridsvg:separator name="vpPath.sep" value="::"/>
  </metadata>
  <g transform="translate(0, 391) scale(1, -1)">
    <g id="gridSVG" fill="none" stroke="rgb(0,0,0)" stroke-dasharray="none" stroke-width="1" font-size="16" font-family="Helvetica, Arial, FreeSans, Liberation Sans, Nimbus Sans L, sans-serif" opacity="1" stroke-linecap="round" stroke-linejoin="round" stroke-miterlimit="10" stroke-opacity="1" fill-opacity="0" font-weight="normal" font-style="normal">
      <g id="plot_01.background.1">
        <rect id="plot_01.background.1.1" x="0" y="0" width="683" height="391" fill="none" stroke="none" stroke-opacity="0" fill-opacity="0"/>
      </g>
      <g id="plot_01.toplevel.vp.1" font-size="12">
        <g id="plot_01.toplevel.vp::plot_01.xlab.vp.1">
          <g id="plot_01.xlab.1">
            <g id="plot_01.xlab.1.1" transform="translate(341.5, 17)" stroke-width="0.1">
              <g transform="scale(1, -1)">
                <text x="0" y="0" text-anchor="middle" opacity="1" stroke="rgb(0,0,0)" stroke-opacity="1" fill="rgb(0,0,0)" fill-opacity="1" font-size="12" font-weight="normal" font-style="normal">
                  <tspan dy="5" x="0">Time</tspan>
                </text>
              </g>
            </g>
          </g>
        </g>
        <g id="plot_01.toplevel.vp::plot_01.figure.vp.1"/>
        <defs>
          <clipPath id="plot_01.toplevel.vp::plot_01.panel.1.1.vp.1.clipPath">
            <rect x="73.85" y="265.83" width="535.31" height="67.01" fill="none" stroke="none"/>
          </clipPath>
        </defs>
        <g id="plot_01.toplevel.vp::plot_01.panel.1.1.vp.1" clip-path="url(#plot_01.toplevel.vp::plot_01.panel.1.1.vp.1.clipPath)"/>
        <g id="plot_01.toplevel.vp::plot_01.strip.1.1.off.vp.1"/>
        <g id="plot_01.toplevel.vp::plot_01.strip.left.1.1.off.vp.1">
          <g id="plot_01.ticks.left.panel.1.1.1">
            <polyline id="plot_01.ticks.left.panel.1.1.1.1" points="73.85,269.95 68.18,269.95" stroke="rgb(0,0,0)" opacity="1" stroke-dasharray="none" stroke-width="1" stroke-opacity="1" fill="none"/>
            <polyline id="plot_01.ticks.left.panel.1.1.1.2" points="73.85,285.4 68.18,285.4" stroke="rgb(0,0,0)" opacity="1" stroke-dasharray="none" stroke-width="1" stroke-opacity="1" fill="none"/>
            <polyline id="plot_01.ticks.left.panel.1.1.1.3" points="73.85,300.85 68.18,300.85" stroke="rgb(0,0,0)" opacity="1" stroke-dasharray="none" stroke-width="1" stroke-opacity="1" fill="none"/>
            <polyline id="plot_01.ticks.left.panel.1.1.1.4" points="73.85,316.3 68.18,316.3" stroke="rgb(0,0,0)" opacity="1" stroke-dasharray="none" stroke-width="1" stroke-opacity="1" fill="none"/>
            <polyline id="plot_01.ticks.left.panel.1.1.1.5" points="73.85,331.75 68.18,331.75" stroke="rgb(0,0,0)" opacity="1" stroke-dasharray="none" stroke-width="1" stroke-opacity="1" fill="none"/>
          </g>
          <g id="plot_01.ticklabels.left.panel.1.1.1">
            <g id="plot_01.ticklabels.left.panel.1.1.1.1" transform="translate(62.51, 269.95)" stroke-width="0.1">
              <g transform="scale(1, -1)">
                <text x="0" y="0" text-anchor="end" stroke="rgb(0,0,0)" opacity="1" stroke-opacity="1" fill="rgb(0,0,0)" fill-opacity="1" font-size="9.6" font-weight="normal" font-style="normal">
                  <tspan dy="4" x="0">0</tspan>
                </text>
              </g>
            </g>
            <g id="plot_01.ticklabels.left.panel.1.1.1.2" transform="translate(62.51, 285.4)" stroke-width="0.1">
              <g transform="scale(1, -1)">
                <text x="0" y="0" text-anchor="end" stroke="rgb(0,0,0)" opacity="1" stroke-opacity="1" fill="rgb(0,0,0)" fill-opacity="1" font-size="9.6" font-weight="normal" font-style="normal">
                  <tspan dy="4" x="0">50</tspan>
                </text>
              </g>
            </g>
            <g id="plot_01.ticklabels.left.panel.1.1.1.3" transform="translate(62.51, 300.85)" stroke-width="0.1">
              <g transform="scale(1, -1)">
                <text x="0" y="0" text-anchor="end" stroke="rgb(0,0,0)" opacity="1" stroke-opacity="1" fill="rgb(0,0,0)" fill-opacity="1" font-size="9.6" font-weight="normal" font-style="normal">
                  <tspan dy="4" x="0">100</tspan>
                </text>
              </g>
            </g>
            <g id="plot_01.ticklabels.left.panel.1.1.1.4" transform="translate(62.51, 316.3)" stroke-width="0.1">
              <g transform="scale(1, -1)">
                <text x="0" y="0" text-anchor="end" stroke="rgb(0,0,0)" opacity="1" stroke-opacity="1" fill="rgb(0,0,0)" fill-opacity="1" font-size="9.6" font-weight="normal" font-style="normal">
                  <tspan dy="4" x="0">150</tspan>
                </text>
              </g>
            </g>
          </g>
        </g>
        <g id="plot_01.toplevel.vp::plot_01.panel.1.1.off.vp.1">
          <g id="plot_01.ticks.bottom.panel.1.1.1">
            <polyline id="plot_01.ticks.bottom.panel.1.1.1.1" points="154.15,265.83 154.15,260.17" stroke="rgb(0,0,0)" opacity="1" stroke-dasharray="none" stroke-width="1" stroke-opacity="1" fill="none"/>
            <polyline id="plot_01.ticks.bottom.panel.1.1.1.2" points="249.01,265.83 249.01,260.17" stroke="rgb(0,0,0)" opacity="1" stroke-dasharray="none" stroke-width="1" stroke-opacity="1" fill="none"/>
            <polyline id="plot_01.ticks.bottom.panel.1.1.1.3" points="343.87,265.83 343.87,260.17" stroke="rgb(0,0,0)" opacity="1" stroke-dasharray="none" stroke-width="1" stroke-opacity="1" fill="none"/>
            <polyline id="plot_01.ticks.bottom.panel.1.1.1.4" points="438.73,265.83 438.73,260.17" stroke="rgb(0,0,0)" opacity="1" stroke-dasharray="none" stroke-width="1" stroke-opacity="1" fill="none"/>
            <polyline id="plot_01.ticks.bottom.panel.1.1.1.5" points="533.6,265.83 533.6,260.17" stroke="rgb(0,0,0)" opacity="1" stroke-dasharray="none" stroke-width="1" stroke-opacity="1" fill="none"/>
          </g>
          <g id="plot_01.ticklabels.bottom.panel.1.1.1">
            <g id="plot_01.ticklabels.bottom.panel.1.1.1.1" transform="translate(154.15, 254.5)" stroke-width="0.1">
              <g transform="scale(1, -1)">
                <text x="0" y="0" text-anchor="middle" stroke="rgb(0,0,0)" opacity="1" stroke-opacity="1" fill="rgb(0,0,0)" fill-opacity="1" font-size="9.6" font-weight="normal" font-style="normal">
                  <tspan dy="8" x="0">1700</tspan>
                </text>
              </g>
            </g>
            <g id="plot_01.ticklabels.bottom.panel.1.1.1.2" transform="translate(249.01, 254.5)" stroke-width="0.1">
              <g transform="scale(1, -1)">
                <text x="0" y="0" text-anchor="middle" stroke="rgb(0,0,0)" opacity="1" stroke-opacity="1" fill="rgb(0,0,0)" fill-opacity="1" font-size="9.6" font-weight="normal" font-style="normal">
                  <tspan dy="8" x="0">1720</tspan>
                </text>
              </g>
            </g>
            <g id="plot_01.ticklabels.bottom.panel.1.1.1.3" transform="translate(343.87, 254.5)" stroke-width="0.1">
              <g transform="scale(1, -1)">
                <text x="0" y="0" text-anchor="middle" stroke="rgb(0,0,0)" opacity="1" stroke-opacity="1" fill="rgb(0,0,0)" fill-opacity="1" font-size="9.6" font-weight="normal" font-style="normal">
                  <tspan dy="8" x="0">1740</tspan>
                </text>
              </g>
            </g>
            <g id="plot_01.ticklabels.bottom.panel.1.1.1.4" transform="translate(438.73, 254.5)" stroke-width="0.1">
              <g transform="scale(1, -1)">
                <text x="0" y="0" text-anchor="middle" stroke="rgb(0,0,0)" opacity="1" stroke-opacity="1" fill="rgb(0,0,0)" fill-opacity="1" font-size="9.6" font-weight="normal" font-style="normal">
                  <tspan dy="8" x="0">1760</tspan>
                </text>
              </g>
            </g>
            <g id="plot_01.ticklabels.bottom.panel.1.1.1.5" transform="translate(533.6, 254.5)" stroke-width="0.1">
              <g transform="scale(1, -1)">
                <text x="0" y="0" text-anchor="middle" stroke="rgb(0,0,0)" opacity="1" stroke-opacity="1" fill="rgb(0,0,0)" fill-opacity="1" font-size="9.6" font-weight="normal" font-style="normal">
                  <tspan dy="8" x="0">1780</tspan>
                </text>
              </g>
            </g>
          </g>
          <g id="plot_01.ticks.right.panel.1.1.1">
            <polyline id="plot_01.ticks.right.panel.1.1.1.1" points="609.15,269.95 614.82,269.95" stroke="rgb(0,0,0)" opacity="1" stroke-dasharray="none" stroke-width="1" stroke-opacity="1" fill="none"/>
            <polyline id="plot_01.ticks.right.panel.1.1.1.2" points="609.15,285.4 614.82,285.4" stroke="rgb(0,0,0)" opacity="1" stroke-dasharray="none" stroke-width="1" stroke-opacity="1" fill="none"/>
            <polyline id="plot_01.ticks.right.panel.1.1.1.3" points="609.15,300.85 614.82,300.85" stroke="rgb(0,0,0)" opacity="1" stroke-dasharray="none" stroke-width="1" stroke-opacity="1" fill="none"/>
            <polyline id="plot_01.ticks.right.panel.1.1.1.4" points="609.15,316.3 614.82,316.3" stroke="rgb(0,0,0)" opacity="1" stroke-dasharray="none" stroke-width="1" stroke-opacity="1" fill="none"/>
            <polyline id="plot_01.ticks.right.panel.1.1.1.5" points="609.15,331.75 614.82,331.75" stroke="rgb(0,0,0)" opacity="1" stroke-dasharray="none" stroke-width="1" stroke-opacity="1" fill="none"/>
          </g>
        </g>
        <defs>
          <clipPath id="plot_01.toplevel.vp::plot_01.panel.1.1.vp.2.clipPath">
            <rect x="73.85" y="265.83" width="535.31" height="67.01" fill="none" stroke="none"/>
          </clipPath>
        </defs>
        <g id="plot_01.toplevel.vp::plot_01.panel.1.1.vp.2" clip-path="url(#plot_01.toplevel.vp::plot_01.panel.1.1.vp.2.clipPath)">
          <g id="plot_01.polygon.panel.1.1.1">
            <polygon id="plot_01.polygon.panel.1.1.1.1" points="154.15,265.83 154.15,271.49 158.89,273.35 163.63,274.89 168.38,277.06 173.12,281.07 177.86,287.87 182.61,278.91 187.35,276.13 192.09,273.04 196.84,272.42 201.58,270.88 206.32,269.95 211.06,269.95 215.81,270.57 220.55,273.35 225.29,278.29 230.04,284.47 234.78,289.42 239.52,288.49 244.27,282 249.01,278.6 253.75,277.98 258.5,276.75 263.24,273.35 267.98,276.44 272.73,282.31 277.47,294.05 282.21,307.65 286.95,301.78 291.7,292.51 296.44,284.47 301.18,280.76 305.93,273.35 310.67,271.49 315.41,274.89 320.16,280.46 324.9,291.58 329.64,294.98 334.39,304.25 339.13,301.16 343.87,292.51 348.61,282.31 353.36,276.13 358.1,274.89 362.84,271.49 367.59,273.35 372.33,276.75 377.07,282.31 381.82,288.49 386.56,294.95 391.3,295.72 396.05,284.69 400.79,284.72 405.53,279.44 410.27,273.72 415.02,272.92 419.76,273.1 424.5,279.96 429.25,284.66 433.99,286.64 438.73,289.39 443.48,296.49 448.22,288.86 452.96,283.89 457.71,281.2 462.45,276.41 467.19,273.47 471.94,281.63 476.68,291.52 481.42,302.74 486.16,301.1 490.91,295.17 495.65,290.5 500.39,280.7 505.14,279.41 509.88,272.11 514.62,276.07 519.37,298.53 524.11,317.66 528.85,308.86 533.6,296.15 538.34,290.99 543.08,281.85 547.82,276.99 552.57,273.1 557.31,277.4 562.05,295.57 566.8,310.74 571.54,310.4 576.28,306.44 576.28,265.83" fill="rgb(190,190,190)" stroke="none" opacity="1" stroke-dasharray="none" stroke-width="5" stroke-opacity="0" fill-opacity="1" font-size="9.6"/>
          </g>
          <g id="plot_01.xyplot.lines.panel.1.1.1">
            <polyline id="plot_01.xyplot.lines.panel.1.1.1.1" points="106.72,271.49 111.46,273.35 116.2,274.89 120.95,277.06 125.69,281.07 130.43,287.87 135.18,278.91 139.92,276.13 144.66,273.04 149.4,272.42 154.15,270.88 158.89,269.95 163.63,269.95 168.38,270.57 173.12,273.35 177.86,278.29 182.61,284.47 187.35,289.42 192.09,288.49 196.84,282 201.58,278.6 206.32,277.98 211.06,276.75 215.81,273.35 220.55,276.44 225.29,282.31 230.04,294.05 234.78,307.65 239.52,301.78 244.27,292.51 249.01,284.47 253.75,280.76 258.5,273.35 263.24,271.49 267.98,274.89 272.73,280.46 277.47,291.58 282.21,294.98 286.95,304.25 291.7,301.16 296.44,292.51 301.18,282.31 305.93,276.13 310.67,274.89 315.41,271.49 320.16,273.35 324.9,276.75 329.64,282.31 334.39,288.49 339.13,294.95 343.87,295.72 348.61,284.69 353.36,284.72 358.1,279.44 362.84,273.72 367.59,272.92 372.33,273.1 377.07,279.96 381.82,284.66 386.56,286.64 391.3,289.39 396.05,296.49 400.79,288.86 405.53,283.89 410.27,281.2 415.02,276.41 419.76,273.47 424.5,281.63 429.25,291.52 433.99,302.74 438.73,301.1 443.48,295.17 448.22,290.5 452.96,280.7 457.71,279.41 462.45,272.11 467.19,276.07 471.94,298.53 476.68,317.66 481.42,308.86 486.16,296.15 490.91,290.99 495.65,281.85 500.39,276.99 505.14,273.1 509.88,277.4 514.62,295.57 519.37,310.74 524.11,310.4 528.85,306.44 533.6,297.73 538.34,290.53 543.08,288.49 547.82,284.44 552.57,282.62 557.31,276.53 562.05,274.89 566.8,271.93 571.54,271.22 576.28,272.05" stroke-dasharray="none" stroke="rgb(0,0,0)" stroke-width="2" opacity="1" stroke-opacity="1" fill="none"/>
          </g>
        </g>
        <g id="plot_01.toplevel.vp::plot_01.panel.1.1.off.vp.2">
          <g id="plot_01.border.panel.1.1.1">
            <rect id="plot_01.border.panel.1.1.1.1" x="73.85" y="265.83" width="535.31" height="67.01" stroke="rgb(0,0,0)" stroke-dasharray="none" stroke-width="1" opacity="1" fill="none" stroke-opacity="1" fill-opacity="0"/>
          </g>
        </g>
        <g id="plot_01.toplevel.vp::plot_01.strip.1.1.vp.1">
          <defs>
            <clipPath id="plot_01.toplevel.vp::plot_01.strip.1.1.vp::plot_01.strip.default.1.1.clipPath">
              <rect x="73.85" y="332.84" width="535.31" height="14.4" fill="none" stroke="none"/>
            </clipPath>
          </defs>
          <g id="plot_01.toplevel.vp::plot_01.strip.1.1.vp::plot_01.strip.default.1.1" clip-path="url(#plot_01.toplevel.vp::plot_01.strip.1.1.vp::plot_01.strip.default.1.1.clipPath)">
            <g id="plot_01.bg.strip.1.1.1">
              <rect id="plot_01.bg.strip.1.1.1.1" x="73.85" y="332.84" width="535.31" height="14.4" fill="rgb(255,229,204)" stroke="rgb(255,229,204)" stroke-opacity="1" fill-opacity="1"/>
            </g>
            <g id="plot_01.fg.strip.1.1.1">
              <rect id="plot_01.fg.strip.1.1.1.1" x="73.85" y="332.84" width="179.03" height="14.4" stroke="rgb(255,127,0)" fill="rgb(255,127,0)" stroke-opacity="1" fill-opacity="1"/>
            </g>
            <g id="plot_01.textl.strip.1.1.1">
              <g id="plot_01.textl.strip.1.1.1.1" transform="translate(353.5, 340.04)" stroke-width="0.1">
                <g transform="scale(1, -1)">
                  <text x="0" y="0" text-anchor="end" stroke="rgb(0,0,0)" opacity="1" stroke-opacity="1" fill="rgb(0,0,0)" fill-opacity="1" font-size="12" font-weight="normal" font-style="normal">
                    <tspan dy="5" x="0">time</tspan>
                  </text>
                </g>
              </g>
            </g>
          </g>
          <g id="plot_01.toplevel.vp::plot_01.strip.1.1.vp::plot_01.strip.default.off.1.1">
            <g id="plot_01.border.strip.1.1.1">
              <rect id="plot_01.border.strip.1.1.1.1" x="73.85" y="332.84" width="535.31" height="14.4" stroke="rgb(0,0,0)" stroke-dasharray="none" stroke-width="1" opacity="1" fill="none" stroke-opacity="1" fill-opacity="0"/>
            </g>
          </g>
        </g>
        <defs>
          <clipPath id="plot_01.toplevel.vp::plot_01.panel.1.2.vp.1.clipPath">
            <rect x="73.85" y="159.42" width="535.31" height="67.01" fill="none" stroke="none"/>
          </clipPath>
        </defs>
        <g id="plot_01.toplevel.vp::plot_01.panel.1.2.vp.1" clip-path="url(#plot_01.toplevel.vp::plot_01.panel.1.2.vp.1.clipPath)"/>
        <g id="plot_01.toplevel.vp::plot_01.strip.1.2.off.vp.1"/>
        <g id="plot_01.toplevel.vp::plot_01.strip.left.1.2.off.vp.1">
          <g id="plot_01.ticks.left.panel.1.2.1">
            <polyline id="plot_01.ticks.left.panel.1.2.1.1" points="73.85,163.54 68.18,163.54" stroke="rgb(0,0,0)" opacity="1" stroke-dasharray="none" stroke-width="1" stroke-opacity="1" fill="none"/>
            <polyline id="plot_01.ticks.left.panel.1.2.1.2" points="73.85,178.99 68.18,178.99" stroke="rgb(0,0,0)" opacity="1" stroke-dasharray="none" stroke-width="1" stroke-opacity="1" fill="none"/>
            <polyline id="plot_01.ticks.left.panel.1.2.1.3" points="73.85,194.44 68.18,194.44" stroke="rgb(0,0,0)" opacity="1" stroke-dasharray="none" stroke-width="1" stroke-opacity="1" fill="none"/>
            <polyline id="plot_01.ticks.left.panel.1.2.1.4" points="73.85,209.89 68.18,209.89" stroke="rgb(0,0,0)" opacity="1" stroke-dasharray="none" stroke-width="1" stroke-opacity="1" fill="none"/>
            <polyline id="plot_01.ticks.left.panel.1.2.1.5" points="73.85,225.34 68.18,225.34" stroke="rgb(0,0,0)" opacity="1" stroke-dasharray="none" stroke-width="1" stroke-opacity="1" fill="none"/>
          </g>
        </g>
        <g id="plot_01.toplevel.vp::plot_01.panel.1.2.off.vp.1">
          <g id="plot_01.ticks.bottom.panel.1.2.1">
            <polyline id="plot_01.ticks.bottom.panel.1.2.1.1" points="156.52,159.42 156.52,153.75" stroke="rgb(0,0,0)" opacity="1" stroke-dasharray="none" stroke-width="1" stroke-opacity="1" fill="none"/>
            <polyline id="plot_01.ticks.bottom.panel.1.2.1.2" points="251.38,159.42 251.38,153.75" stroke="rgb(0,0,0)" opacity="1" stroke-dasharray="none" stroke-width="1" stroke-opacity="1" fill="none"/>
            <polyline id="plot_01.ticks.bottom.panel.1.2.1.3" points="346.24,159.42 346.24,153.75" stroke="rgb(0,0,0)" opacity="1" stroke-dasharray="none" stroke-width="1" stroke-opacity="1" fill="none"/>
            <polyline id="plot_01.ticks.bottom.panel.1.2.1.4" points="441.1,159.42 441.1,153.75" stroke="rgb(0,0,0)" opacity="1" stroke-dasharray="none" stroke-width="1" stroke-opacity="1" fill="none"/>
            <polyline id="plot_01.ticks.bottom.panel.1.2.1.5" points="535.97,159.42 535.97,153.75" stroke="rgb(0,0,0)" opacity="1" stroke-dasharray="none" stroke-width="1" stroke-opacity="1" fill="none"/>
          </g>
          <g id="plot_01.ticklabels.bottom.panel.1.2.1">
            <g id="plot_01.ticklabels.bottom.panel.1.2.1.1" transform="translate(156.52, 148.08)" stroke-width="0.1">
              <g transform="scale(1, -1)">
                <text x="0" y="0" text-anchor="middle" stroke="rgb(0,0,0)" opacity="1" stroke-opacity="1" fill="rgb(0,0,0)" fill-opacity="1" font-size="9.6" font-weight="normal" font-style="normal">
                  <tspan dy="8" x="0">1800</tspan>
                </text>
              </g>
            </g>
            <g id="plot_01.ticklabels.bottom.panel.1.2.1.2" transform="translate(251.38, 148.08)" stroke-width="0.1">
              <g transform="scale(1, -1)">
                <text x="0" y="0" text-anchor="middle" stroke="rgb(0,0,0)" opacity="1" stroke-opacity="1" fill="rgb(0,0,0)" fill-opacity="1" font-size="9.6" font-weight="normal" font-style="normal">
                  <tspan dy="8" x="0">1820</tspan>
                </text>
              </g>
            </g>
            <g id="plot_01.ticklabels.bottom.panel.1.2.1.3" transform="translate(346.24, 148.08)" stroke-width="0.1">
              <g transform="scale(1, -1)">
                <text x="0" y="0" text-anchor="middle" stroke="rgb(0,0,0)" opacity="1" stroke-opacity="1" fill="rgb(0,0,0)" fill-opacity="1" font-size="9.6" font-weight="normal" font-style="normal">
                  <tspan dy="8" x="0">1840</tspan>
                </text>
              </g>
            </g>
            <g id="plot_01.ticklabels.bottom.panel.1.2.1.4" transform="translate(441.1, 148.08)" stroke-width="0.1">
              <g transform="scale(1, -1)">
                <text x="0" y="0" text-anchor="middle" stroke="rgb(0,0,0)" opacity="1" stroke-opacity="1" fill="rgb(0,0,0)" fill-opacity="1" font-size="9.6" font-weight="normal" font-style="normal">
                  <tspan dy="8" x="0">1860</tspan>
                </text>
              </g>
            </g>
            <g id="plot_01.ticklabels.bottom.panel.1.2.1.5" transform="translate(535.97, 148.08)" stroke-width="0.1">
              <g transform="scale(1, -1)">
                <text x="0" y="0" text-anchor="middle" stroke="rgb(0,0,0)" opacity="1" stroke-opacity="1" fill="rgb(0,0,0)" fill-opacity="1" font-size="9.6" font-weight="normal" font-style="normal">
                  <tspan dy="8" x="0">1880</tspan>
                </text>
              </g>
            </g>
          </g>
          <g id="plot_01.ticks.right.panel.1.2.1">
            <polyline id="plot_01.ticks.right.panel.1.2.1.1" points="609.15,163.54 614.82,163.54" stroke="rgb(0,0,0)" opacity="1" stroke-dasharray="none" stroke-width="1" stroke-opacity="1" fill="none"/>
            <polyline id="plot_01.ticks.right.panel.1.2.1.2" points="609.15,178.99 614.82,178.99" stroke="rgb(0,0,0)" opacity="1" stroke-dasharray="none" stroke-width="1" stroke-opacity="1" fill="none"/>
            <polyline id="plot_01.ticks.right.panel.1.2.1.3" points="609.15,194.44 614.82,194.44" stroke="rgb(0,0,0)" opacity="1" stroke-dasharray="none" stroke-width="1" stroke-opacity="1" fill="none"/>
            <polyline id="plot_01.ticks.right.panel.1.2.1.4" points="609.15,209.89 614.82,209.89" stroke="rgb(0,0,0)" opacity="1" stroke-dasharray="none" stroke-width="1" stroke-opacity="1" fill="none"/>
            <polyline id="plot_01.ticks.right.panel.1.2.1.5" points="609.15,225.34 614.82,225.34" stroke="rgb(0,0,0)" opacity="1" stroke-dasharray="none" stroke-width="1" stroke-opacity="1" fill="none"/>
          </g>
          <g id="plot_01.ticklabels.right.panel.1.2.1">
            <g id="plot_01.ticklabels.right.panel.1.2.1.1" transform="translate(620.49, 163.54)" stroke-width="0.1">
              <g transform="scale(1, -1)">
                <text x="0" y="0" text-anchor="start" stroke="rgb(0,0,0)" opacity="1" stroke-opacity="1" fill="rgb(0,0,0)" fill-opacity="1" font-size="9.6" font-weight="normal" font-style="normal">
                  <tspan dy="4" x="0">0</tspan>
                </text>
              </g>
            </g>
            <g id="plot_01.ticklabels.right.panel.1.2.1.2" transform="translate(620.49, 178.99)" stroke-width="0.1">
              <g transform="scale(1, -1)">
                <text x="0" y="0" text-anchor="start" stroke="rgb(0,0,0)" opacity="1" stroke-opacity="1" fill="rgb(0,0,0)" fill-opacity="1" font-size="9.6" font-weight="normal" font-style="normal">
                  <tspan dy="4" x="0">50</tspan>
                </text>
              </g>
            </g>
            <g id="plot_01.ticklabels.right.panel.1.2.1.3" transform="translate(620.49, 194.44)" stroke-width="0.1">
              <g transform="scale(1, -1)">
                <text x="0" y="0" text-anchor="start" stroke="rgb(0,0,0)" opacity="1" stroke-opacity="1" fill="rgb(0,0,0)" fill-opacity="1" font-size="9.6" font-weight="normal" font-style="normal">
                  <tspan dy="4" x="0">100</tspan>
                </text>
              </g>
            </g>
            <g id="plot_01.ticklabels.right.panel.1.2.1.4" transform="translate(620.49, 209.89)" stroke-width="0.1">
              <g transform="scale(1, -1)">
                <text x="0" y="0" text-anchor="start" stroke="rgb(0,0,0)" opacity="1" stroke-opacity="1" fill="rgb(0,0,0)" fill-opacity="1" font-size="9.6" font-weight="normal" font-style="normal">
                  <tspan dy="4" x="0">150</tspan>
                </text>
              </g>
            </g>
          </g>
        </g>
        <defs>
          <clipPath id="plot_01.toplevel.vp::plot_01.panel.1.2.vp.2.clipPath">
            <rect x="73.85" y="159.42" width="535.31" height="67.01" fill="none" stroke="none"/>
          </clipPath>
        </defs>
        <g id="plot_01.toplevel.vp::plot_01.panel.1.2.vp.2" clip-path="url(#plot_01.toplevel.vp::plot_01.panel.1.2.vp.2.clipPath)">
          <g id="plot_01.polygon.panel.1.2.1">
            <polygon id="plot_01.polygon.panel.1.2.1.1" points="109.09,159.42 109.09,191.32 113.83,184.12 118.57,182.08 123.32,178.03 128.06,176.21 132.8,170.12 137.55,168.48 142.29,165.51 147.03,164.8 151.78,165.64 156.52,168.02 161.26,174.04 166.01,177.44 170.75,176.85 175.49,178.21 180.23,176.58 184.98,172.22 189.72,166.66 194.46,166.04 199.21,164.31 203.95,163.54 208.69,163.97 213.44,165.08 218.18,167.31 222.92,167.83 227.67,174.48 232.41,177.69 237.15,176.24 241.9,172.84 246.64,170.92 251.38,168.36 256.12,165.58 260.87,164.77 265.61,164.09 270.35,166.16 275.1,168.67 279.84,174.75 284.58,178.86 289.33,183.38 294.07,184.24 298.81,185.45 303.56,178.31 308.3,172.03 313.04,166.16 317.78,167.61 322.53,181.12 327.27,201.08 332.01,206.27 336.76,195.43 341.5,190.02 346.24,183.5 350.99,174.88 355.73,171.01 360.47,166.84 365.22,168.17 369.96,175.93 374.7,182.54 379.44,193.97 384.19,202.07 388.93,193.29 393.67,184.12 398.42,183.47 403.16,180.25 407.9,175.59 412.65,169.9 417.39,165.61 422.13,164.86 426.88,170.55 431.62,180.47 436.36,192.52 441.1,193.14 445.85,187.39 450.59,181.8 455.33,177.13 460.08,178.06 464.82,172.96 469.56,168.57 474.31,165.79 479.05,175.15 483.79,186.4 488.54,206.49 493.28,197.9 498.02,194.93 502.77,183.99 507.51,177.35 512.25,168.79 516.99,167.03 521.74,167.37 526.48,164.59 531.22,165.39 535.97,173.52 540.71,180.32 545.45,181.98 550.2,183.22 554.94,183.16 559.68,179.67 564.43,171.38 569.17,167.58 573.91,165.64 573.91,159.42" fill="rgb(190,190,190)" stroke="none" opacity="1" stroke-dasharray="none" stroke-width="5" stroke-opacity="0" fill-opacity="1" font-size="9.6"/>
          </g>
          <g id="plot_01.xyplot.lines.panel.1.2.1">
            <polyline id="plot_01.xyplot.lines.panel.1.2.1.1" points="109.09,168.02 113.83,174.04 118.57,177.44 123.32,176.85 128.06,178.21 132.8,176.58 137.55,172.22 142.29,166.66 147.03,166.04 151.78,164.31 156.52,163.54 161.26,163.97 166.01,165.08 170.75,167.31 175.49,167.83 180.23,174.48 184.98,177.69 189.72,176.24 194.46,172.84 199.21,170.92 203.95,168.36 208.69,165.58 213.44,164.77 218.18,164.09 222.92,166.16 227.67,168.67 232.41,174.75 237.15,178.86 241.9,183.38 246.64,184.24 251.38,185.45 256.12,178.31 260.87,172.03 265.61,166.16 270.35,167.61 275.1,181.12 279.84,201.08 284.58,206.27 289.33,195.43 294.07,190.02 298.81,183.5 303.56,174.88 308.3,171.01 313.04,166.84 317.78,168.17 322.53,175.93 327.27,182.54 332.01,193.97 336.76,202.07 341.5,193.29 346.24,184.12 350.99,183.47 355.73,180.25 360.47,175.59 365.22,169.9 369.96,165.61 374.7,164.86 379.44,170.55 384.19,180.47 388.93,192.52 393.67,193.14 398.42,187.39 403.16,181.8 407.9,177.13 412.65,178.06 417.39,172.96 422.13,168.57 426.88,165.79 431.62,175.15 436.36,186.4 441.1,206.49 445.85,197.9 450.59,194.93 455.33,183.99 460.08,177.35 464.82,168.79 469.56,167.03 474.31,167.37 479.05,164.59 483.79,165.39 488.54,173.52 493.28,180.32 498.02,181.98 502.77,183.22 507.51,183.16 512.25,179.67 516.99,171.38 521.74,167.58 526.48,165.64 531.22,165.48 535.97,165.73 540.71,174.54 545.45,186.09 550.2,189.83 554.94,187.64 559.68,183.31 564.43,176.45 569.17,171.63 573.91,171.79" stroke-dasharray="none" stroke="rgb(0,0,0)" stroke-width="2" opacity="1" stroke-opacity="1" fill="none"/>
          </g>
        </g>
        <g id="plot_01.toplevel.vp::plot_01.panel.1.2.off.vp.2">
          <g id="plot_01.border.panel.1.2.1">
            <rect id="plot_01.border.panel.1.2.1.1" x="73.85" y="159.42" width="535.31" height="67.01" stroke="rgb(0,0,0)" stroke-dasharray="none" stroke-width="1" opacity="1" fill="none" stroke-opacity="1" fill-opacity="0"/>
          </g>
        </g>
        <g id="plot_01.toplevel.vp::plot_01.strip.1.2.vp.1">
          <defs>
            <clipPath id="plot_01.toplevel.vp::plot_01.strip.1.2.vp::plot_01.strip.default.1.1.clipPath">
              <rect x="73.85" y="226.43" width="535.31" height="14.4" fill="none" stroke="none"/>
            </clipPath>
          </defs>
          <g id="plot_01.toplevel.vp::plot_01.strip.1.2.vp::plot_01.strip.default.1.1" clip-path="url(#plot_01.toplevel.vp::plot_01.strip.1.2.vp::plot_01.strip.default.1.1.clipPath)">
            <g id="plot_01.bg.strip.1.2.1">
              <rect id="plot_01.bg.strip.1.2.1.1" x="73.85" y="226.43" width="535.31" height="14.4" fill="rgb(255,229,204)" stroke="rgb(255,229,204)" stroke-opacity="1" fill-opacity="1"/>
            </g>
            <g id="plot_01.fg.strip.1.2.1">
              <rect id="plot_01.fg.strip.1.2.1.1" x="252.88" y="226.43" width="177.24" height="14.4" stroke="rgb(255,127,0)" fill="rgb(255,127,0)" stroke-opacity="1" fill-opacity="1"/>
            </g>
            <g id="plot_01.textl.strip.1.2.1">
              <g id="plot_01.textl.strip.1.2.1.1" transform="translate(353.5, 233.63)" stroke-width="0.1">
                <g transform="scale(1, -1)">
                  <text x="0" y="0" text-anchor="end" stroke="rgb(0,0,0)" opacity="1" stroke-opacity="1" fill="rgb(0,0,0)" fill-opacity="1" font-size="12" font-weight="normal" font-style="normal">
                    <tspan dy="5" x="0">time</tspan>
                  </text>
                </g>
              </g>
            </g>
          </g>
          <g id="plot_01.toplevel.vp::plot_01.strip.1.2.vp::plot_01.strip.default.off.1.1">
            <g id="plot_01.border.strip.1.2.1">
              <rect id="plot_01.border.strip.1.2.1.1" x="73.85" y="226.43" width="535.31" height="14.4" stroke="rgb(0,0,0)" stroke-dasharray="none" stroke-width="1" opacity="1" fill="none" stroke-opacity="1" fill-opacity="0"/>
            </g>
          </g>
        </g>
        <defs>
          <clipPath id="plot_01.toplevel.vp::plot_01.panel.1.3.vp.1.clipPath">
            <rect x="73.85" y="53.01" width="535.31" height="67.01" fill="none" stroke="none"/>
          </clipPath>
        </defs>
        <g id="plot_01.toplevel.vp::plot_01.panel.1.3.vp.1" clip-path="url(#plot_01.toplevel.vp::plot_01.panel.1.3.vp.1.clipPath)"/>
        <g id="plot_01.toplevel.vp::plot_01.strip.1.3.off.vp.1"/>
        <g id="plot_01.toplevel.vp::plot_01.strip.left.1.3.off.vp.1">
          <g id="plot_01.ticks.left.panel.1.3.1">
            <polyline id="plot_01.ticks.left.panel.1.3.1.1" points="73.85,57.12 68.18,57.12" stroke="rgb(0,0,0)" opacity="1" stroke-dasharray="none" stroke-width="1" stroke-opacity="1" fill="none"/>
            <polyline id="plot_01.ticks.left.panel.1.3.1.2" points="73.85,72.57 68.18,72.57" stroke="rgb(0,0,0)" opacity="1" stroke-dasharray="none" stroke-width="1" stroke-opacity="1" fill="none"/>
            <polyline id="plot_01.ticks.left.panel.1.3.1.3" points="73.85,88.02 68.18,88.02" stroke="rgb(0,0,0)" opacity="1" stroke-dasharray="none" stroke-width="1" stroke-opacity="1" fill="none"/>
            <polyline id="plot_01.ticks.left.panel.1.3.1.4" points="73.85,103.48 68.18,103.48" stroke="rgb(0,0,0)" opacity="1" stroke-dasharray="none" stroke-width="1" stroke-opacity="1" fill="none"/>
            <polyline id="plot_01.ticks.left.panel.1.3.1.5" points="73.85,118.93 68.18,118.93" stroke="rgb(0,0,0)" opacity="1" stroke-dasharray="none" stroke-width="1" stroke-opacity="1" fill="none"/>
          </g>
          <g id="plot_01.ticklabels.left.panel.1.3.1">
            <g id="plot_01.ticklabels.left.panel.1.3.1.1" transform="translate(62.51, 57.12)" stroke-width="0.1">
              <g transform="scale(1, -1)">
                <text x="0" y="0" text-anchor="end" stroke="rgb(0,0,0)" opacity="1" stroke-opacity="1" fill="rgb(0,0,0)" fill-opacity="1" font-size="9.6" font-weight="normal" font-style="normal">
                  <tspan dy="4" x="0">0</tspan>
                </text>
              </g>
            </g>
            <g id="plot_01.ticklabels.left.panel.1.3.1.2" transform="translate(62.51, 72.57)" stroke-width="0.1">
              <g transform="scale(1, -1)">
                <text x="0" y="0" text-anchor="end" stroke="rgb(0,0,0)" opacity="1" stroke-opacity="1" fill="rgb(0,0,0)" fill-opacity="1" font-size="9.6" font-weight="normal" font-style="normal">
                  <tspan dy="4" x="0">50</tspan>
                </text>
              </g>
            </g>
            <g id="plot_01.ticklabels.left.panel.1.3.1.3" transform="translate(62.51, 88.02)" stroke-width="0.1">
              <g transform="scale(1, -1)">
                <text x="0" y="0" text-anchor="end" stroke="rgb(0,0,0)" opacity="1" stroke-opacity="1" fill="rgb(0,0,0)" fill-opacity="1" font-size="9.6" font-weight="normal" font-style="normal">
                  <tspan dy="4" x="0">100</tspan>
                </text>
              </g>
            </g>
            <g id="plot_01.ticklabels.left.panel.1.3.1.4" transform="translate(62.51, 103.48)" stroke-width="0.1">
              <g transform="scale(1, -1)">
                <text x="0" y="0" text-anchor="end" stroke="rgb(0,0,0)" opacity="1" stroke-opacity="1" fill="rgb(0,0,0)" fill-opacity="1" font-size="9.6" font-weight="normal" font-style="normal">
                  <tspan dy="4" x="0">150</tspan>
                </text>
              </g>
            </g>
          </g>
        </g>
        <g id="plot_01.toplevel.vp::plot_01.panel.1.3.off.vp.1">
          <g id="plot_01.ticks.bottom.panel.1.3.1">
            <polyline id="plot_01.ticks.bottom.panel.1.3.1.1" points="158.89,53.01 158.89,47.34" stroke="rgb(0,0,0)" opacity="1" stroke-dasharray="none" stroke-width="1" stroke-opacity="1" fill="none"/>
            <polyline id="plot_01.ticks.bottom.panel.1.3.1.2" points="253.75,53.01 253.75,47.34" stroke="rgb(0,0,0)" opacity="1" stroke-dasharray="none" stroke-width="1" stroke-opacity="1" fill="none"/>
            <polyline id="plot_01.ticks.bottom.panel.1.3.1.3" points="348.61,53.01 348.61,47.34" stroke="rgb(0,0,0)" opacity="1" stroke-dasharray="none" stroke-width="1" stroke-opacity="1" fill="none"/>
            <polyline id="plot_01.ticks.bottom.panel.1.3.1.4" points="443.48,53.01 443.48,47.34" stroke="rgb(0,0,0)" opacity="1" stroke-dasharray="none" stroke-width="1" stroke-opacity="1" fill="none"/>
            <polyline id="plot_01.ticks.bottom.panel.1.3.1.5" points="538.34,53.01 538.34,47.34" stroke="rgb(0,0,0)" opacity="1" stroke-dasharray="none" stroke-width="1" stroke-opacity="1" fill="none"/>
          </g>
          <g id="plot_01.ticklabels.bottom.panel.1.3.1">
            <g id="plot_01.ticklabels.bottom.panel.1.3.1.1" transform="translate(158.89, 41.67)" stroke-width="0.1">
              <g transform="scale(1, -1)">
                <text x="0" y="0" text-anchor="middle" stroke="rgb(0,0,0)" opacity="1" stroke-opacity="1" fill="rgb(0,0,0)" fill-opacity="1" font-size="9.6" font-weight="normal" font-style="normal">
                  <tspan dy="8" x="0">1900</tspan>
                </text>
              </g>
            </g>
            <g id="plot_01.ticklabels.bottom.panel.1.3.1.2" transform="translate(253.75, 41.67)" stroke-width="0.1">
              <g transform="scale(1, -1)">
                <text x="0" y="0" text-anchor="middle" stroke="rgb(0,0,0)" opacity="1" stroke-opacity="1" fill="rgb(0,0,0)" fill-opacity="1" font-size="9.6" font-weight="normal" font-style="normal">
                  <tspan dy="8" x="0">1920</tspan>
                </text>
              </g>
            </g>
            <g id="plot_01.ticklabels.bottom.panel.1.3.1.3" transform="translate(348.61, 41.67)" stroke-width="0.1">
              <g transform="scale(1, -1)">
                <text x="0" y="0" text-anchor="middle" stroke="rgb(0,0,0)" opacity="1" stroke-opacity="1" fill="rgb(0,0,0)" fill-opacity="1" font-size="9.6" font-weight="normal" font-style="normal">
                  <tspan dy="8" x="0">1940</tspan>
                </text>
              </g>
            </g>
            <g id="plot_01.ticklabels.bottom.panel.1.3.1.4" transform="translate(443.48, 41.67)" stroke-width="0.1">
              <g transform="scale(1, -1)">
                <text x="0" y="0" text-anchor="middle" stroke="rgb(0,0,0)" opacity="1" stroke-opacity="1" fill="rgb(0,0,0)" fill-opacity="1" font-size="9.6" font-weight="normal" font-style="normal">
                  <tspan dy="8" x="0">1960</tspan>
                </text>
              </g>
            </g>
            <g id="plot_01.ticklabels.bottom.panel.1.3.1.5" transform="translate(538.34, 41.67)" stroke-width="0.1">
              <g transform="scale(1, -1)">
                <text x="0" y="0" text-anchor="middle" stroke="rgb(0,0,0)" opacity="1" stroke-opacity="1" fill="rgb(0,0,0)" fill-opacity="1" font-size="9.6" font-weight="normal" font-style="normal">
                  <tspan dy="8" x="0">1980</tspan>
                </text>
              </g>
            </g>
          </g>
          <g id="plot_01.ticks.right.panel.1.3.1">
            <polyline id="plot_01.ticks.right.panel.1.3.1.1" points="609.15,57.12 614.82,57.12" stroke="rgb(0,0,0)" opacity="1" stroke-dasharray="none" stroke-width="1" stroke-opacity="1" fill="none"/>
            <polyline id="plot_01.ticks.right.panel.1.3.1.2" points="609.15,72.57 614.82,72.57" stroke="rgb(0,0,0)" opacity="1" stroke-dasharray="none" stroke-width="1" stroke-opacity="1" fill="none"/>
            <polyline id="plot_01.ticks.right.panel.1.3.1.3" points="609.15,88.02 614.82,88.02" stroke="rgb(0,0,0)" opacity="1" stroke-dasharray="none" stroke-width="1" stroke-opacity="1" fill="none"/>
            <polyline id="plot_01.ticks.right.panel.1.3.1.4" points="609.15,103.48 614.82,103.48" stroke="rgb(0,0,0)" opacity="1" stroke-dasharray="none" stroke-width="1" stroke-opacity="1" fill="none"/>
            <polyline id="plot_01.ticks.right.panel.1.3.1.5" points="609.15,118.93 614.82,118.93" stroke="rgb(0,0,0)" opacity="1" stroke-dasharray="none" stroke-width="1" stroke-opacity="1" fill="none"/>
          </g>
        </g>
        <defs>
          <clipPath id="plot_01.toplevel.vp::plot_01.panel.1.3.vp.2.clipPath">
            <rect x="73.85" y="53.01" width="535.31" height="67.01" fill="none" stroke="none"/>
          </clipPath>
        </defs>
        <g id="plot_01.toplevel.vp::plot_01.panel.1.3.vp.2" clip-path="url(#plot_01.toplevel.vp::plot_01.panel.1.3.vp.2.clipPath)">
          <g id="plot_01.polygon.panel.1.3.1">
            <polygon id="plot_01.polygon.panel.1.3.1.1" points="106.72,53.01 106.72,59.07 111.46,59.32 116.2,68.12 120.95,79.68 125.69,83.42 130.43,81.23 135.18,76.9 139.92,70.04 144.66,65.22 149.4,65.37 154.15,60.86 158.89,60.06 163.63,57.96 168.38,58.67 173.12,64.66 177.86,70.1 182.61,76.75 187.35,73.75 192.09,76.28 196.84,72.11 201.58,70.69 206.32,62.87 211.06,58.88 215.81,58.23 220.55,57.55 225.29,60.09 230.04,71.77 234.78,74.77 239.52,89.23 244.27,82.03 249.01,76.78 253.75,68.74 258.5,65.19 263.24,61.51 267.98,58.91 272.73,62.28 277.47,70.81 282.21,76.87 286.95,78.45 291.7,81.16 296.44,77.18 301.18,68.15 305.93,63.67 310.67,60.55 315.41,58.88 320.16,59.81 324.9,68.28 329.64,81.75 334.39,92.47 339.13,90.99 343.87,84.56 348.61,78.07 353.36,71.8 358.1,66.58 362.84,62.16 367.59,60.09 372.33,67.38 377.07,85.74 381.82,103.97 386.56,99.24 391.3,98.75 396.05,83.05 400.79,78.57 405.53,66.86 410.27,61.42 415.02,58.48 419.76,68.87 424.5,100.91 429.25,115.9 433.99,114.23 438.73,106.26 443.48,91.83 448.22,73.78 452.96,68.71 457.71,65.74 462.45,60.27 467.19,61.79 471.94,71.65 476.68,86.11 481.42,89.85 486.16,89.72 490.91,89.42 495.65,77.7 500.39,78.41 505.14,68.87 509.88,67.78 514.62,61.91 519.37,61.02 524.11,65.62 528.85,85.71 533.6,105.14 538.34,104.93 543.08,100.54 547.82,92.94 552.57,77.7 557.31,71.31 562.05,62.65 566.8,61.26 571.54,66.15 576.28,88.09 576.28,53.01" fill="rgb(190,190,190)" stroke="none" opacity="1" stroke-dasharray="none" stroke-width="5" stroke-opacity="0" fill-opacity="1" font-size="9.6"/>
          </g>
          <g id="plot_01.xyplot.lines.panel.1.3.1">
            <polyline id="plot_01.xyplot.lines.panel.1.3.1.1" points="106.72,60.86 111.46,60.06 116.2,57.96 120.95,58.67 125.69,64.66 130.43,70.1 135.18,76.75 139.92,73.75 144.66,76.28 149.4,72.11 154.15,70.69 158.89,62.87 163.63,58.88 168.38,58.23 173.12,57.55 177.86,60.09 182.61,71.77 187.35,74.77 192.09,89.23 196.84,82.03 201.58,76.78 206.32,68.74 211.06,65.19 215.81,61.51 220.55,58.91 225.29,62.28 230.04,70.81 234.78,76.87 239.52,78.45 244.27,81.16 249.01,77.18 253.75,68.15 258.5,63.67 263.24,60.55 267.98,58.88 272.73,59.81 277.47,68.28 282.21,81.75 286.95,92.47 291.7,90.99 296.44,84.56 301.18,78.07 305.93,71.8 310.67,66.58 315.41,62.16 320.16,60.09 324.9,67.38 329.64,85.74 334.39,103.97 339.13,99.24 343.87,98.75 348.61,83.05 353.36,78.57 358.1,66.86 362.84,61.42 367.59,58.48 372.33,68.87 377.07,100.91 381.82,115.9 386.56,114.23 391.3,106.26 396.05,91.83 400.79,73.78 405.53,68.71 410.27,65.74 415.02,60.27 419.76,61.79 424.5,71.65 429.25,86.11 433.99,89.85 438.73,89.72 443.48,89.42 448.22,77.7 452.96,78.41 457.71,68.87 462.45,67.78 467.19,61.91 471.94,61.02 476.68,65.62 481.42,85.71 486.16,105.14 490.91,104.93 495.65,100.54 500.39,92.94 505.14,77.7 509.88,71.31 514.62,62.65 519.37,61.26 524.11,66.15 528.85,88.09 NA,NA NA,NA NA,NA NA,NA NA,NA NA,NA NA,NA NA,NA NA,NA NA,NA" stroke-dasharray="none" stroke="rgb(0,0,0)" stroke-width="2" opacity="1" stroke-opacity="1" fill="none"/>
          </g>
        </g>
        <g id="plot_01.toplevel.vp::plot_01.panel.1.3.off.vp.2">
          <g id="plot_01.border.panel.1.3.1">
            <rect id="plot_01.border.panel.1.3.1.1" x="73.85" y="53.01" width="535.31" height="67.01" stroke="rgb(0,0,0)" stroke-dasharray="none" stroke-width="1" opacity="1" fill="none" stroke-opacity="1" fill-opacity="0"/>
          </g>
        </g>
        <g id="plot_01.toplevel.vp::plot_01.strip.1.3.vp.1">
          <defs>
            <clipPath id="plot_01.toplevel.vp::plot_01.strip.1.3.vp::plot_01.strip.default.1.1.clipPath">
              <rect x="73.85" y="120.01" width="535.31" height="14.4" fill="none" stroke="none"/>
            </clipPath>
          </defs>
          <g id="plot_01.toplevel.vp::plot_01.strip.1.3.vp::plot_01.strip.default.1.1" clip-path="url(#plot_01.toplevel.vp::plot_01.strip.1.3.vp::plot_01.strip.default.1.1.clipPath)">
            <g id="plot_01.bg.strip.1.3.1">
              <rect id="plot_01.bg.strip.1.3.1.1" x="73.85" y="120.01" width="535.31" height="14.4" fill="rgb(255,229,204)" stroke="rgb(255,229,204)" stroke-opacity="1" fill-opacity="1"/>
            </g>
            <g id="plot_01.fg.strip.1.3.1">
              <rect id="plot_01.fg.strip.1.3.1.1" x="430.12" y="120.01" width="179.03" height="14.4" stroke="rgb(255,127,0)" fill="rgb(255,127,0)" stroke-opacity="1" fill-opacity="1"/>
            </g>
            <g id="plot_01.textl.strip.1.3.1">
              <g id="plot_01.textl.strip.1.3.1.1" transform="translate(353.5, 127.21)" stroke-width="0.1">
                <g transform="scale(1, -1)">
                  <text x="0" y="0" text-anchor="end" stroke="rgb(0,0,0)" opacity="1" stroke-opacity="1" fill="rgb(0,0,0)" fill-opacity="1" font-size="12" font-weight="normal" font-style="normal">
                    <tspan dy="5" x="0">time</tspan>
                  </text>
                </g>
              </g>
            </g>
          </g>
          <g id="plot_01.toplevel.vp::plot_01.strip.1.3.vp::plot_01.strip.default.off.1.1">
            <g id="plot_01.border.strip.1.3.1">
              <rect id="plot_01.border.strip.1.3.1.1" x="73.85" y="120.01" width="535.31" height="14.4" stroke="rgb(0,0,0)" stroke-dasharray="none" stroke-width="1" opacity="1" fill="none" stroke-opacity="1" fill-opacity="0"/>
            </g>
          </g>
        </g>
        <g id="plot_01.toplevel.vp::plot_01.legend.top.vp.1">
          <g id="plot_01.toplevel.vp::plot_01.legend.top.vp::GRID.VP.37.1">
            <g id="plot_01.key.frame.1">
              <g id="plot_01.toplevel.vp::plot_01.legend.top.vp::GRID.VP.37::GRID.VP.38.1">
                <g id="GRID.cellGrob.1113.1">
                  <g id="plot_01.key.background.1">
                    <rect id="plot_01.key.background.1.1" x="294.5" y="353.24" width="94" height="25.76" fill="none" opacity="1" stroke="none" stroke-opacity="0" fill-opacity="0"/>
                  </g>
                </g>
              </g>
              <g id="plot_01.toplevel.vp::plot_01.legend.top.vp::GRID.VP.37::GRID.VP.39.1">
                <g id="GRID.cellGrob.1114.1">
                  <g id="plot_01.key.text.1.1.1">
                    <g id="plot_01.key.text.1.1.1.1" transform="translate(301.5, 372.56)" stroke-width="0.1">
                      <g transform="scale(1, -1)">
                        <text x="0" y="0" text-anchor="start" stroke="rgb(0,0,0)" opacity="1" stroke-opacity="1" fill="rgb(0,0,0)" fill-opacity="1" font-size="12" font-weight="normal" font-style="normal">
                          <tspan dy="5" x="0">data</tspan>
                        </text>
                      </g>
                    </g>
                  </g>
                </g>
              </g>
              <g id="plot_01.toplevel.vp::plot_01.legend.top.vp::GRID.VP.37::GRID.VP.40.1">
                <g id="GRID.cellGrob.1115.1">
                  <g id="plot_01.key.text.1.2.1">
                    <g id="plot_01.key.text.1.2.1.1" transform="translate(301.5, 359.68)" stroke-width="0.1">
                      <g transform="scale(1, -1)">
                        <text x="0" y="0" text-anchor="start" stroke="rgb(0,0,0)" opacity="1" stroke-opacity="1" fill="rgb(0,0,0)" fill-opacity="1" font-size="12" font-weight="normal" font-style="normal">
                          <tspan dy="5" x="0">lag10</tspan>
                        </text>
                      </g>
                    </g>
                  </g>
                </g>
              </g>
              <g id="plot_01.toplevel.vp::plot_01.legend.top.vp::GRID.VP.37::GRID.VP.41.1">
                <g id="GRID.cellGrob.1116.1">
                  <g id="plot_01.key.lines.2.1.1">
                    <polyline id="plot_01.key.lines.2.1.1.1" points="346.5,372.56 381.5,372.56" stroke="rgb(190,190,190)" opacity="1" stroke-dasharray="none" stroke-width="5" stroke-opacity="1" fill="none"/>
                  </g>
                </g>
              </g>
              <g id="plot_01.toplevel.vp::plot_01.legend.top.vp::GRID.VP.37::GRID.VP.42.1">
                <g id="GRID.cellGrob.1117.1">
                  <g id="plot_01.key.lines.2.2.1">
                    <polyline id="plot_01.key.lines.2.2.1.1" points="346.5,359.68 381.5,359.68" stroke="rgb(0,0,0)" opacity="1" stroke-dasharray="none" stroke-width="2" stroke-opacity="1" fill="none"/>
                  </g>
                </g>
              </g>
            </g>
          </g>
        </g>
        <g id="plot_01.toplevel.vp::plot_01..1"/>
      </g>
    </g>
  </g>
</svg>