<?xml version="1.0" encoding="ISO8859-1"?>
<svg xmlns="http://www.w3.org/2000/svg" xmlns:xlink="http://www.w3.org/1999/xlink" width="611px" height="323px" viewBox="0 0 611 323" version="1.1">
  <metadata xmlns:gridsvg="http://www.stat.auckland.ac.nz/~paul/R/gridSVG/">
    <gridsvg:generator name="gridSVG" version="1.2-0" time="2013-05-07 09:27:11"/>
    <gridsvg:argument name="name" value="testlatticepaneldemo.svg"/>
    <gridsvg:argument name="exportCoords" value="none"/>
    <gridsvg:argument name="exportMappings" value="none"/>
    <gridsvg:argument name="exportJS" value="none"/>
    <gridsvg:argument name="res" value="72"/>
    <gridsvg:argument name="prefix" value=""/>
    <gridsvg:argument name="addClasses" value="FALSE"/>
    <gridsvg:argument name="indent" value="TRUE"/>
    <gridsvg:argument name="htmlWrapper" value="FALSE"/>
    <gridsvg:argument name="usePaths" value="vpPaths"/>
    <gridsvg:argument name="uniqueNames" value="TRUE"/>
    <gridsvg:separator name="id.sep" value="."/>
    <gridsvg:separator name="gPath.sep" value="::"/>
    <gridsvg:separator name="vpPath.sep" value="::"/>
  </metadata>
  <g transform="translate(0, 323) scale(1, -1)">
    <g id="gridSVG" fill="none" stroke="rgb(0,0,0)" stroke-dasharray="none" stroke-width="1" font-size="16" font-family="Helvetica, Arial, FreeSans, Liberation Sans, Nimbus Sans L, sans-serif" opacity="1" stroke-linecap="round" stroke-linejoin="round" stroke-miterlimit="10" stroke-opacity="1" fill-opacity="0" font-weight="normal" font-style="normal">
      <g id="plot_01.background.1">
        <rect id="plot_01.background.1.1" x="0" y="0" width="611" height="323" fill="none" stroke="none" stroke-opacity="0" fill-opacity="0"/>
      </g>
      <g id="plot_01.toplevel.vp.1" font-size="12">
        <g id="plot_01.toplevel.vp::plot_01.xlab.vp.1">
          <g id="plot_01.xlab.1">
            <g transform="translate(330, 17)" stroke-width="0.1" id="plot_01.xlab.1.1">
              <g transform="scale(1, -1)">
                <text x="0" y="0" text-anchor="middle" opacity="1" stroke="rgb(0,0,0)" stroke-opacity="1" fill="rgb(0,0,0)" fill-opacity="1" font-size="12" font-weight="normal" font-style="normal">
                  <tspan dy="5" x="0">height</tspan>
                </text>
              </g>
            </g>
          </g>
        </g>
        <g id="plot_01.toplevel.vp::plot_01.figure.vp.1"/>
        <defs>
          <clipPath id="plot_01.toplevel.vp::plot_01.panel.1.1.vp.1.clipPath">
            <rect x="72.34" y="53.01" width="515.32" height="234.98" fill="none" stroke="none"/>
          </clipPath>
        </defs>
        <g id="plot_01.toplevel.vp::plot_01.panel.1.1.vp.1" clip-path="url(#plot_01.toplevel.vp::plot_01.panel.1.1.vp.1.clipPath)"/>
        <g id="plot_01.toplevel.vp::plot_01.strip.1.1.off.vp.1">
          <g id="plot_01.ticks.top.panel.1.1.1">
            <polyline stroke="rgb(0,0,0)" opacity="1" stroke-dasharray="none" stroke-width="1" stroke-opacity="1" fill="none" id="plot_01.ticks.top.panel.1.1.1.1" points="103.98,287.99 103.98,293.66"/>
            <polyline stroke="rgb(0,0,0)" opacity="1" stroke-dasharray="none" stroke-width="1" stroke-opacity="1" fill="none" id="plot_01.ticks.top.panel.1.1.1.2" points="245.24,287.99 245.24,293.66"/>
            <polyline stroke="rgb(0,0,0)" opacity="1" stroke-dasharray="none" stroke-width="1" stroke-opacity="1" fill="none" id="plot_01.ticks.top.panel.1.1.1.3" points="386.5,287.99 386.5,293.66"/>
            <polyline stroke="rgb(0,0,0)" opacity="1" stroke-dasharray="none" stroke-width="1" stroke-opacity="1" fill="none" id="plot_01.ticks.top.panel.1.1.1.4" points="527.77,287.99 527.77,293.66"/>
          </g>
        </g>
        <g id="plot_01.toplevel.vp::plot_01.strip.left.1.1.off.vp.1">
          <g id="plot_01.ticklabels.left.panel.1.1.1">
            <g transform="translate(66.67, 68.85)" stroke-width="0.1" id="plot_01.ticklabels.left.panel.1.1.1.1">
              <g transform="scale(1, -1)">
                <text x="0" y="0" text-anchor="end" stroke="rgb(0,0,0)" opacity="1" stroke-opacity="1" fill="rgb(0,0,0)" fill-opacity="1" font-size="9.6" font-weight="normal" font-style="normal">
                  <tspan dy="4" x="0">Bass 2</tspan>
                </text>
              </g>
            </g>
            <g transform="translate(66.67, 95.25)" stroke-width="0.1" id="plot_01.ticklabels.left.panel.1.1.1.2">
              <g transform="scale(1, -1)">
                <text x="0" y="0" text-anchor="end" stroke="rgb(0,0,0)" opacity="1" stroke-opacity="1" fill="rgb(0,0,0)" fill-opacity="1" font-size="9.6" font-weight="normal" font-style="normal">
                  <tspan dy="4" x="0">Bass 1</tspan>
                </text>
              </g>
            </g>
            <g transform="translate(66.67, 121.65)" stroke-width="0.1" id="plot_01.ticklabels.left.panel.1.1.1.3">
              <g transform="scale(1, -1)">
                <text x="0" y="0" text-anchor="end" stroke="rgb(0,0,0)" opacity="1" stroke-opacity="1" fill="rgb(0,0,0)" fill-opacity="1" font-size="9.6" font-weight="normal" font-style="normal">
                  <tspan dy="4" x="0">Tenor 2</tspan>
                </text>
              </g>
            </g>
            <g transform="translate(66.67, 148.06)" stroke-width="0.1" id="plot_01.ticklabels.left.panel.1.1.1.4">
              <g transform="scale(1, -1)">
                <text x="0" y="0" text-anchor="end" stroke="rgb(0,0,0)" opacity="1" stroke-opacity="1" fill="rgb(0,0,0)" fill-opacity="1" font-size="9.6" font-weight="normal" font-style="normal">
                  <tspan dy="4" x="0">Tenor 1</tspan>
                </text>
              </g>
            </g>
            <g transform="translate(66.67, 174.46)" stroke-width="0.1" id="plot_01.ticklabels.left.panel.1.1.1.5">
              <g transform="scale(1, -1)">
                <text x="0" y="0" text-anchor="end" stroke="rgb(0,0,0)" opacity="1" stroke-opacity="1" fill="rgb(0,0,0)" fill-opacity="1" font-size="9.6" font-weight="normal" font-style="normal">
                  <tspan dy="4" x="0">Alto 2</tspan>
                </text>
              </g>
            </g>
            <g transform="translate(66.67, 200.86)" stroke-width="0.1" id="plot_01.ticklabels.left.panel.1.1.1.6">
              <g transform="scale(1, -1)">
                <text x="0" y="0" text-anchor="end" stroke="rgb(0,0,0)" opacity="1" stroke-opacity="1" fill="rgb(0,0,0)" fill-opacity="1" font-size="9.6" font-weight="normal" font-style="normal">
                  <tspan dy="4" x="0">Alto 1</tspan>
                </text>
              </g>
            </g>
            <g transform="translate(66.67, 227.27)" stroke-width="0.1" id="plot_01.ticklabels.left.panel.1.1.1.7">
              <g transform="scale(1, -1)">
                <text x="0" y="0" text-anchor="end" stroke="rgb(0,0,0)" opacity="1" stroke-opacity="1" fill="rgb(0,0,0)" fill-opacity="1" font-size="9.6" font-weight="normal" font-style="normal">
                  <tspan dy="4" x="0">Soprano 2</tspan>
                </text>
              </g>
            </g>
            <g transform="translate(66.67, 253.67)" stroke-width="0.1" id="plot_01.ticklabels.left.panel.1.1.1.8">
              <g transform="scale(1, -1)">
                <text x="0" y="0" text-anchor="end" stroke="rgb(0,0,0)" opacity="1" stroke-opacity="1" fill="rgb(0,0,0)" fill-opacity="1" font-size="9.6" font-weight="normal" font-style="normal">
                  <tspan dy="4" x="0">Soprano 1</tspan>
                </text>
              </g>
            </g>
          </g>
        </g>
        <g id="plot_01.toplevel.vp::plot_01.panel.1.1.off.vp.1">
          <g id="plot_01.ticks.bottom.panel.1.1.1">
            <polyline stroke="rgb(0,0,0)" opacity="1" stroke-dasharray="none" stroke-width="1" stroke-opacity="1" fill="none" id="plot_01.ticks.bottom.panel.1.1.1.1" points="103.98,53.01 103.98,47.34"/>
            <polyline stroke="rgb(0,0,0)" opacity="1" stroke-dasharray="none" stroke-width="1" stroke-opacity="1" fill="none" id="plot_01.ticks.bottom.panel.1.1.1.2" points="245.24,53.01 245.24,47.34"/>
            <polyline stroke="rgb(0,0,0)" opacity="1" stroke-dasharray="none" stroke-width="1" stroke-opacity="1" fill="none" id="plot_01.ticks.bottom.panel.1.1.1.3" points="386.5,53.01 386.5,47.34"/>
            <polyline stroke="rgb(0,0,0)" opacity="1" stroke-dasharray="none" stroke-width="1" stroke-opacity="1" fill="none" id="plot_01.ticks.bottom.panel.1.1.1.4" points="527.77,53.01 527.77,47.34"/>
          </g>
          <g id="plot_01.ticklabels.bottom.panel.1.1.1">
            <g transform="translate(103.98, 41.67)" stroke-width="0.1" id="plot_01.ticklabels.bottom.panel.1.1.1.1">
              <g transform="scale(1, -1)">
                <text x="0" y="0" text-anchor="middle" stroke="rgb(0,0,0)" opacity="1" stroke-opacity="1" fill="rgb(0,0,0)" fill-opacity="1" font-size="9.6" font-weight="normal" font-style="normal">
                  <tspan dy="8" x="0">60</tspan>
                </text>
              </g>
            </g>
            <g transform="translate(245.24, 41.67)" stroke-width="0.1" id="plot_01.ticklabels.bottom.panel.1.1.1.2">
              <g transform="scale(1, -1)">
                <text x="0" y="0" text-anchor="middle" stroke="rgb(0,0,0)" opacity="1" stroke-opacity="1" fill="rgb(0,0,0)" fill-opacity="1" font-size="9.6" font-weight="normal" font-style="normal">
                  <tspan dy="8" x="0">65</tspan>
                </text>
              </g>
            </g>
            <g transform="translate(386.5, 41.67)" stroke-width="0.1" id="plot_01.ticklabels.bottom.panel.1.1.1.3">
              <g transform="scale(1, -1)">
                <text x="0" y="0" text-anchor="middle" stroke="rgb(0,0,0)" opacity="1" stroke-opacity="1" fill="rgb(0,0,0)" fill-opacity="1" font-size="9.6" font-weight="normal" font-style="normal">
                  <tspan dy="8" x="0">70</tspan>
                </text>
              </g>
            </g>
            <g transform="translate(527.77, 41.67)" stroke-width="0.1" id="plot_01.ticklabels.bottom.panel.1.1.1.4">
              <g transform="scale(1, -1)">
                <text x="0" y="0" text-anchor="middle" stroke="rgb(0,0,0)" opacity="1" stroke-opacity="1" fill="rgb(0,0,0)" fill-opacity="1" font-size="9.6" font-weight="normal" font-style="normal">
                  <tspan dy="8" x="0">75</tspan>
                </text>
              </g>
            </g>
          </g>
        </g>
        <defs>
          <clipPath id="plot_01.toplevel.vp::plot_01.panel.1.1.vp.2.clipPath">
            <rect x="72.34" y="53.01" width="515.32" height="234.98" fill="none" stroke="none"/>
          </clipPath>
        </defs>
        <g id="plot_01.toplevel.vp::plot_01.panel.1.1.vp.2" clip-path="url(#plot_01.toplevel.vp::plot_01.panel.1.1.vp.2.clipPath)">
          <g id="plot_01.polygon.panel.1.1.1">
            <polygon fill="rgb(0,255,255)" stroke="rgb(0,0,0)" stroke-dasharray="none" stroke-width="1" opacity="1" stroke-opacity="1" fill-opacity="1" id="plot_01.polygon.panel.1.1.1.1" points="41.43,240.47 41.43,240.49 48.6,240.52 55.76,240.6 62.93,240.76 70.09,241.02 77.26,241.42 84.42,241.97 91.59,242.67 98.76,243.49 105.92,244.43 113.09,245.53 120.25,246.86 127.42,248.46 134.58,250.31 141.75,252.27 148.92,254.05 156.08,255.3 163.25,255.76 170.41,255.37 177.58,254.31 184.74,252.96 191.91,251.79 199.08,251.34 206.24,252.15 213.41,254.64 220.57,258.83 227.74,264.14 234.9,269.41 242.07,273.29 249.24,274.79 256.4,273.66 263.57,270.39 270.73,265.88 277.9,260.98 285.07,256.35 292.23,252.37 299.4,249.22 306.56,246.93 313.73,245.36 320.89,244.33 328.06,243.59 335.23,242.97 342.39,242.38 349.56,241.84 356.72,241.36 363.89,241 371.05,240.75 378.22,240.6 385.39,240.52 392.55,240.49 392.55,240.47"/>
          </g>
          <g id="plot_01.abline.h.panel.1.1.1">
            <polyline stroke="rgb(230,230,230)" stroke-dasharray="none" stroke-width="1" opacity="1" stroke-opacity="1" fill="none" id="plot_01.abline.h.panel.1.1.1.1" points="72.34,240.47 587.66,240.47"/>
          </g>
          <g id="plot_01.polygon.panel.1.1.2">
            <polygon fill="rgb(0,255,255)" stroke="rgb(0,0,0)" stroke-dasharray="none" stroke-width="1" opacity="1" stroke-opacity="1" fill-opacity="1" id="plot_01.polygon.panel.1.1.2.1" points="6.41,214.06 6.41,214.17 16.15,214.31 25.9,214.6 35.65,215.13 45.4,216.03 55.15,217.4 64.9,219.31 74.64,221.73 84.39,224.54 94.14,227.58 103.89,230.65 113.64,233.62 123.39,236.4 133.14,238.95 142.88,241.2 152.63,243.06 162.38,244.48 172.13,245.48 181.88,246.17 191.63,246.71 201.37,247.23 211.12,247.76 220.87,248.21 230.62,248.39 240.37,248.11 250.12,247.25 259.87,245.8 269.61,243.83 279.36,241.44 289.11,238.75 298.86,235.84 308.61,232.8 318.36,229.75 328.1,226.85 337.85,224.28 347.6,222.17 357.35,220.58 367.1,219.45 376.85,218.65 386.6,218.01 396.34,217.41 406.09,216.79 415.84,216.16 425.59,215.56 435.34,215.05 445.09,214.66 454.84,214.4 464.58,214.23 474.33,214.14 484.08,214.1 484.08,214.06"/>
          </g>
          <g id="plot_01.abline.h.panel.1.1.2">
            <polyline stroke="rgb(230,230,230)" stroke-dasharray="none" stroke-width="1" opacity="1" stroke-opacity="1" fill="none" id="plot_01.abline.h.panel.1.1.2.1" points="72.34,214.06 587.66,214.06"/>
          </g>
          <g id="plot_01.polygon.panel.1.1.3">
            <polygon fill="rgb(0,255,255)" stroke="rgb(0,0,0)" stroke-dasharray="none" stroke-width="1" opacity="1" stroke-opacity="1" fill-opacity="1" id="plot_01.polygon.panel.1.1.3.1" points="6.13,187.66 6.13,187.7 17.04,187.75 27.96,187.89 38.87,188.18 49.78,188.72 60.69,189.67 71.61,191.15 82.52,193.25 93.43,195.96 104.35,199.09 115.26,202.36 126.17,205.41 137.08,207.96 148,209.88 158.91,211.2 169.82,212.05 180.74,212.61 191.65,213.08 202.56,213.68 213.47,214.6 224.39,215.97 235.3,217.76 246.21,219.69 257.13,221.27 268.04,221.99 278.95,221.42 289.86,219.48 300.78,216.38 311.69,212.57 322.6,208.56 333.52,204.78 344.43,201.5 355.34,198.8 366.25,196.67 377.17,195.01 388.08,193.73 398.99,192.76 409.91,192.06 420.82,191.57 431.73,191.19 442.65,190.81 453.56,190.35 464.47,189.82 475.38,189.24 486.3,188.72 497.21,188.3 508.12,188 519.04,187.83 529.95,187.73 540.86,187.69 540.86,187.66"/>
          </g>
          <g id="plot_01.abline.h.panel.1.1.3">
            <polyline stroke="rgb(230,230,230)" stroke-dasharray="none" stroke-width="1" opacity="1" stroke-opacity="1" fill="none" id="plot_01.abline.h.panel.1.1.3.1" points="72.34,187.66 587.66,187.66"/>
          </g>
          <g id="plot_01.polygon.panel.1.1.4">
            <polygon fill="rgb(0,255,255)" stroke="rgb(0,0,0)" stroke-dasharray="none" stroke-width="1" opacity="1" stroke-opacity="1" fill-opacity="1" id="plot_01.polygon.panel.1.1.4.1" points="100.4,161.26 100.4,161.36 108.04,161.46 115.68,161.67 123.32,162.04 130.96,162.64 138.61,163.57 146.25,164.92 153.89,166.75 161.53,169.08 169.17,171.86 176.82,175 184.46,178.35 192.1,181.72 199.74,184.94 207.38,187.87 215.02,190.4 222.67,192.48 230.31,194.05 237.95,195.1 245.59,195.58 253.23,195.44 260.88,194.61 268.52,193.05 276.16,190.77 283.8,187.87 291.44,184.54 299.08,181.05 306.73,177.72 314.37,174.83 322.01,172.65 329.65,171.34 337.29,170.95 344.93,171.42 352.58,172.52 360.22,173.96 367.86,175.36 375.5,176.36 383.14,176.65 390.79,176.1 398.43,174.75 406.07,172.79 413.71,170.51 421.35,168.23 428.99,166.17 436.64,164.51 444.28,163.27 451.92,162.42 459.56,161.89 467.2,161.58 474.85,161.41 474.85,161.26"/>
          </g>
          <g id="plot_01.abline.h.panel.1.1.4">
            <polyline stroke="rgb(230,230,230)" stroke-dasharray="none" stroke-width="1" opacity="1" stroke-opacity="1" fill="none" id="plot_01.abline.h.panel.1.1.4.1" points="72.34,161.26 587.66,161.26"/>
          </g>
          <g id="plot_01.polygon.panel.1.1.5">
            <polygon fill="rgb(0,255,255)" stroke="rgb(0,0,0)" stroke-dasharray="none" stroke-width="1" opacity="1" stroke-opacity="1" fill-opacity="1" id="plot_01.polygon.panel.1.1.5.1" points="78.81,134.86 78.81,134.95 91.37,135.07 103.93,135.29 116.49,135.7 129.05,136.38 141.6,137.44 154.16,138.97 166.72,141.02 179.28,143.59 191.84,146.62 204.4,149.98 216.96,153.49 229.52,156.99 242.08,160.29 254.64,163.23 267.19,165.68 279.75,167.52 292.31,168.69 304.87,169.18 317.43,169.06 329.99,168.47 342.55,167.61 355.11,166.65 367.67,165.75 380.23,164.95 392.78,164.21 405.34,163.43 417.9,162.45 430.46,161.15 443.02,159.48 455.58,157.47 468.14,155.22 480.7,152.85 493.26,150.52 505.82,148.34 518.37,146.39 530.93,144.67 543.49,143.15 556.05,141.79 568.61,140.53 581.17,139.36 593.73,138.29 606.29,137.35 618.85,136.57 631.41,135.96 643.96,135.52 656.52,135.23 669.08,135.05 681.64,134.95 694.2,134.9 694.2,134.86"/>
          </g>
          <g id="plot_01.abline.h.panel.1.1.5">
            <polyline stroke="rgb(230,230,230)" stroke-dasharray="none" stroke-width="1" opacity="1" stroke-opacity="1" fill="none" id="plot_01.abline.h.panel.1.1.5.1" points="72.34,134.86 587.66,134.86"/>
          </g>
          <g id="plot_01.polygon.panel.1.1.6">
            <polygon fill="rgb(0,255,255)" stroke="rgb(0,0,0)" stroke-dasharray="none" stroke-width="1" opacity="1" stroke-opacity="1" fill-opacity="1" id="plot_01.polygon.panel.1.1.6.1" points="211.57,108.45 211.57,108.5 219.86,108.58 228.15,108.8 236.45,109.21 244.74,109.9 253.03,110.79 261.33,111.69 269.62,112.34 277.91,112.65 286.21,112.86 294.5,113.54 302.79,115.35 311.09,118.63 319.38,123.3 327.67,128.89 335.97,134.63 344.26,139.53 352.56,142.48 360.85,142.78 369.14,140.76 377.44,137.86 385.73,135.78 394.02,135.33 402.32,135.85 410.61,135.7 418.9,133.47 427.2,129.01 435.49,123.53 443.78,118.67 452.08,115.43 460.37,113.76 468.67,112.98 476.96,112.35 485.25,111.55 493.55,110.63 501.84,109.85 510.13,109.42 518.43,109.46 526.72,109.95 535.01,110.75 543.31,111.6 551.6,112.16 559.89,112.18 568.19,111.64 576.48,110.78 584.77,109.89 593.07,109.21 601.36,108.8 609.66,108.58 617.95,108.5 617.95,108.45"/>
          </g>
          <g id="plot_01.abline.h.panel.1.1.6">
            <polyline stroke="rgb(230,230,230)" stroke-dasharray="none" stroke-width="1" opacity="1" stroke-opacity="1" fill="none" id="plot_01.abline.h.panel.1.1.6.1" points="72.34,108.45 587.66,108.45"/>
          </g>
          <g id="plot_01.polygon.panel.1.1.7">
            <polygon fill="rgb(0,255,255)" stroke="rgb(0,0,0)" stroke-dasharray="none" stroke-width="1" opacity="1" stroke-opacity="1" fill-opacity="1" id="plot_01.polygon.panel.1.1.7.1" points="191.42,82.05 191.42,82.1 199.96,82.17 208.5,82.32 217.04,82.59 225.58,83.03 234.11,83.68 242.65,84.52 251.19,85.49 259.73,86.52 268.27,87.55 276.81,88.64 285.35,89.92 293.89,91.58 302.43,93.74 310.97,96.32 319.51,99.07 328.05,101.69 336.59,104.02 345.13,106.05 353.66,107.95 362.2,109.9 370.74,111.92 379.28,113.81 387.82,115.33 396.36,116.21 404.9,116.37 413.44,115.84 421.98,114.72 430.52,113.09 439.06,111.01 447.6,108.54 456.14,105.79 464.68,102.94 473.21,100.25 481.75,97.99 490.29,96.33 498.83,95.3 507.37,94.73 515.91,94.29 524.45,93.63 532.99,92.52 541.53,90.92 550.07,89.02 558.61,87.08 567.15,85.37 575.69,84.05 584.23,83.14 592.76,82.6 601.3,82.3 609.84,82.15 609.84,82.05"/>
          </g>
          <g id="plot_01.abline.h.panel.1.1.7">
            <polyline stroke="rgb(230,230,230)" stroke-dasharray="none" stroke-width="1" opacity="1" stroke-opacity="1" fill="none" id="plot_01.abline.h.panel.1.1.7.1" points="72.34,82.05 587.66,82.05"/>
          </g>
          <g id="plot_01.polygon.panel.1.1.8">
            <polygon fill="rgb(0,255,255)" stroke="rgb(0,0,0)" stroke-dasharray="none" stroke-width="1" opacity="1" stroke-opacity="1" fill-opacity="1" id="plot_01.polygon.panel.1.1.8.1" points="165.01,55.65 165.01,55.69 174.62,55.74 184.24,55.84 193.86,56.02 203.47,56.33 213.09,56.83 222.71,57.57 232.33,58.6 241.94,59.94 251.56,61.59 261.18,63.47 270.8,65.48 280.41,67.49 290.03,69.37 299.65,71.03 309.27,72.42 318.88,73.58 328.5,74.6 338.12,75.6 347.74,76.7 357.35,77.98 366.97,79.46 376.59,81.12 386.2,82.91 395.82,84.73 405.44,86.5 415.06,88.06 424.67,89.24 434.29,89.9 443.91,89.97 453.53,89.54 463.14,88.79 472.76,87.93 482.38,87.12 492,86.34 501.61,85.39 511.23,84.01 520.85,81.96 530.47,79.16 540.08,75.72 549.7,71.93 559.32,68.14 568.93,64.69 578.55,61.8 588.17,59.58 597.79,58.01 607.4,56.98 617.02,56.35 626.64,55.99 636.26,55.81 636.26,55.65"/>
          </g>
          <g id="plot_01.abline.h.panel.1.1.8">
            <polyline stroke="rgb(230,230,230)" stroke-dasharray="none" stroke-width="1" opacity="1" stroke-opacity="1" fill="none" id="plot_01.abline.h.panel.1.1.8.1" points="72.34,55.65 587.66,55.65"/>
          </g>
        </g>
        <g id="plot_01.toplevel.vp::plot_01.panel.1.1.off.vp.2">
          <g id="plot_01.border.panel.1.1.1">
            <rect id="plot_01.border.panel.1.1.1.1" x="72.34" y="53.01" width="515.32" height="234.98" stroke="rgb(0,0,0)" stroke-dasharray="none" stroke-width="1" opacity="1" fill="none" stroke-opacity="1" fill-opacity="0"/>
          </g>
        </g>
        <g id="plot_01.toplevel.vp::plot_01..1"/>
      </g>
    </g>
  </g>
</svg>